<?xml version="1.0" encoding="UTF-8" standalone="no"?>
<!-- Created with Inkscape (http://www.inkscape.org/) -->

<svg
   version="1.1"
   id="svg1"
   width="25"
   height="25"
   viewBox="0 0 25 25"
   sodipodi:docname="Favicon_logo.svg"
   inkscape:version="1.3 (0e150ed6c4, 2023-07-21)"
   xmlns:inkscape="http://www.inkscape.org/namespaces/inkscape"
   xmlns:sodipodi="http://sodipodi.sourceforge.net/DTD/sodipodi-0.dtd"
   xmlns="http://www.w3.org/2000/svg"
   xmlns:svg="http://www.w3.org/2000/svg">
  <defs
     id="defs1" />
  <sodipodi:namedview
     id="namedview1"
     pagecolor="#ffffff"
     bordercolor="#000000"
     borderopacity="0.25"
     inkscape:showpageshadow="2"
     inkscape:pageopacity="0.0"
     inkscape:pagecheckerboard="0"
     inkscape:deskcolor="#d1d1d1"
     inkscape:zoom="13.160815"
     inkscape:cx="43.728295"
     inkscape:cy="18.273944"
     inkscape:window-width="1920"
     inkscape:window-height="1094"
     inkscape:window-x="-11"
     inkscape:window-y="-11"
     inkscape:window-maximized="1"
     inkscape:current-layer="g1"
     inkscape:clip-to-page="true" />
  <g
     inkscape:groupmode="layer"
     inkscape:label="Image"
     id="g1"
     transform="translate(-204.86549,-104.43669)">
    <path
       style="fill:#809782;fill-opacity:1;stroke:none;stroke-width:0.056963"
       d="m 208.72338,116.72285 c 0.0309,0.39103 0.13218,0.78405 0.19655,1.17124 0.0267,0.15997 0.0924,0.35031 0.0737,0.51242 -0.0309,0.26714 -0.2518,0.56674 -0.3701,0.80522 l -0.8531,1.72027 -0.79887,1.61043 c -0.0926,0.18688 -0.28351,0.44029 -0.21928,0.65884 0.0791,0.26882 0.30357,0.53907 0.45861,0.7686 0.42459,0.62862 0.90677,1.21937 1.44,1.75687 2.29899,2.31728 5.40089,3.58689 8.64229,3.58689 0.95411,0 1.90372,-0.10679 2.83234,-0.33415 0.21926,-0.0537 0.43825,-0.11136 0.65362,-0.17919 0.0895,-0.0281 0.20397,-0.0539 0.2686,-0.12749 0.19289,-0.22003 -0.15722,-0.52511 -0.2835,-0.67675 -0.35801,-0.42991 -0.72219,-0.8546 -1.0843,-1.28103 -0.0971,-0.11428 -0.33509,-0.30566 -0.27994,-0.47583 0.0508,-0.15669 0.21874,-0.31099 0.31847,-0.4392 0.21716,-0.27916 0.42954,-0.56201 0.64583,-0.84183 0.64071,-0.8289 1.29367,-1.64954 1.92087,-2.48887 0.25124,-0.3362 0.58115,-0.65605 0.78273,-1.02484 0.15243,-0.27883 0.0848,-0.68061 0.11401,-0.98823 0.0586,-0.62079 0.0935,-1.24463 0.13583,-1.86665 0.0171,-0.25174 -0.005,-0.52162 0.0549,-0.76863 0.0661,-0.2677 0.31039,-0.53616 0.45501,-0.76861 0.37486,-0.60243 0.84823,-1.21337 1.12753,-1.86667 h 0.0725 c 0.20905,0.44348 0.57929,0.84745 0.86599,1.24444 0.10845,0.15013 0.2895,0.33011 0.33601,0.51243 0.0466,0.1829 -0.0549,0.44102 -0.0908,0.6222 -0.0678,0.34127 -0.13083,0.68322 -0.1962,1.02484 -0.0341,0.17791 -0.093,0.36656 -0.0885,0.54902 0.005,0.25465 0.16453,0.53455 0.25577,0.76863 0.18934,0.4858 0.37246,0.97515 0.55386,1.46402 0.19102,0.51479 0.39065,1.03218 0.60532,1.53727 0.0721,0.16983 0.19317,0.47138 0.43215,0.32282 0.12672,-0.0788 0.19698,-0.27055 0.26792,-0.39604 0.21532,-0.38081 0.38373,-0.80094 0.54472,-1.20782 0.68811,-1.7392 0.98145,-3.66588 0.80504,-5.52677 -0.16595,-1.75033 -0.63599,-3.43478 -1.48996,-4.97776 -2.30502,-4.16476 -6.99767,-6.63051 -11.69752,-6.17936 -5.0626,0.48596 -9.39834,4.19376 -10.63488,9.18066 -0.35018,1.41219 -0.4205,2.83901 -0.29511,4.28232 0.0299,0.34452 0.0906,0.6843 0.1482,1.02483 0.0232,0.13744 0.0382,0.32212 0.18257,0.38754 0.12094,0.0548 0.23403,-0.0214 0.32272,-0.0996 0.1972,-0.17384 0.35925,-0.39359 0.54483,-0.5807 0.78662,-0.7932 1.53681,-1.62227 2.32398,-2.41568 m 20.15325,1.35423 h -0.0364 c -0.32938,-0.44793 -0.67929,-0.88161 -1.02396,-1.31764 -0.13018,-0.16468 -0.27381,-0.4484 -0.4681,-0.54085 -0.32175,-0.15313 -0.62747,0.54277 -0.91365,0.20873 -0.37642,-0.43935 -0.68598,-0.95417 -1.02303,-1.42472 -0.0965,-0.13477 -0.2615,-0.45543 -0.45669,-0.43846 -0.16783,0.0146 -0.34592,0.21423 -0.47203,0.31311 -0.33676,0.26407 -0.68031,0.51918 -1.01675,0.78366 -0.11649,0.0914 -0.38133,0.36532 -0.54144,0.31779 -0.17736,-0.0525 -0.34209,-0.36219 -0.45439,-0.50029 -0.38595,-0.47465 -0.77348,-0.94822 -1.15384,-1.42744 -0.12568,-0.15846 -0.35398,-0.58025 -0.57516,-0.59615 -0.10858,-0.009 -0.2078,0.0831 -0.28906,0.14341 -0.16454,0.12201 -0.31946,0.26244 -0.50839,0.34294 -0.6597,-0.89704 -1.37046,-1.76329 -2.06254,-2.63529 -0.16367,-0.20624 -0.32214,-0.41653 -0.48656,-0.62218 -0.0736,-0.092 -0.15987,-0.23145 -0.28364,-0.25731 -0.18054,-0.0378 -0.36362,0.25647 -0.47155,0.36708 -0.39615,0.40605 -0.76273,0.84123 -1.1621,1.24444 -1.16008,1.17127 -2.2612,2.4126 -3.38028,3.6235 -0.38579,0.41744 -0.78508,0.82135 -1.1649,1.24444 -0.16607,0.18498 -0.35933,0.34459 -0.50221,0.549 l -0.43575,-0.36598 -0.65361,-0.65884 -0.47206,-0.38554 -0.2871,0.16521 -0.54811,0.58635 -1.30396,1.35424 -0.98369,0.98824 c -0.0999,-0.41827 -0.11945,-0.85425 -0.1485,-1.28105 -0.0982,-1.4436 0.0754,-2.89838 0.50469,-4.28233 0.52317,-1.68711 1.42891,-3.24464 2.62468,-4.53854 3.00365,-3.25015 7.78233,-4.49814 11.97974,-3.18335 3.98401,1.24791 7.07927,4.63322 7.96,8.74671 0.17928,0.83737 0.25525,1.67152 0.24925,2.52549 -0.002,0.30521 0.0474,0.65714 -0.0391,0.95162 m -11.69251,-6.9542 h 0.0364 l 1.93995,2.48887 0.4568,0.58561 0.29039,0.24483 0.29047,-0.1352 0.54466,-0.32926 c 0.38831,0.59168 0.89093,1.1375 1.34062,1.68364 0.11438,0.13884 0.47781,0.4573 0.44298,0.65259 -0.0163,0.0914 -0.1197,0.15714 -0.18602,0.21031 -0.15181,0.12163 -0.4816,0.47466 -0.68977,0.39752 -0.22806,-0.0845 -0.45457,-0.30449 -0.65361,-0.44441 -0.0936,-0.0658 -0.20251,-0.15851 -0.32539,-0.13729 -0.1369,0.0235 -0.23834,0.17962 -0.32873,0.27298 -0.25257,0.26088 -0.50403,0.53007 -0.74116,0.8052 -0.85544,0.99256 -1.79051,1.91633 -2.66554,2.89148 -0.33062,0.36847 -0.67884,0.72308 -1.00198,1.09805 -0.0913,0.1059 -0.26132,0.35842 -0.41709,0.35842 -0.0932,0 -0.16483,-0.11262 -0.2182,-0.1756 l -0.46516,-0.54885 c -0.62067,-0.73095 -1.2593,-1.44979 -1.86174,-2.19605 v -0.0365 l 1.9174,-2.37908 0.84233,-1.06143 c 0.18732,0.0921 0.29769,0.27597 0.42304,0.43922 0.17936,0.23356 0.3653,0.46186 0.54471,0.69542 0.0884,0.11529 0.23522,0.37829 0.41142,0.3385 0.14072,-0.0318 0.18722,-0.1828 0.12957,-0.3019 -0.1145,-0.23632 -0.337,-0.45366 -0.49917,-0.65883 l -0.48663,-0.62221 c -0.0759,-0.0958 -0.18488,-0.20234 -0.20193,-0.32941 -0.0156,-0.11656 0.0455,-0.25642 0.0794,-0.36601 l 0.21001,-0.69544 c 0.20285,-0.6567 0.376,-1.32271 0.58793,-1.97644 0.0801,-0.24733 0.11957,-0.54657 0.25418,-0.76861 m -0.58099,0.36598 -0.66378,2.23267 -0.36795,1.17126 -1.00889,1.28103 -1.88108,2.30586 h -0.0363 c -0.15051,-0.18629 -0.30983,-0.36503 -0.46313,-0.549 -0.081,-0.0974 -0.17088,-0.23123 -0.29947,-0.26692 -0.22104,-0.0614 -0.56231,0.19184 -0.76252,0.27129 -0.13231,0.0524 -0.29947,0.0492 -0.35383,-0.11491 -0.0551,-0.16628 0.18251,-0.3387 0.28121,-0.43848 0.36276,-0.36688 0.69943,-0.76038 1.05448,-1.13466 0.92086,-0.97068 1.85823,-1.93231 2.75212,-2.92807 0.36836,-0.41034 0.74702,-0.81107 1.13038,-1.20731 0.20415,-0.21098 0.37807,-0.45185 0.61877,-0.62276 m 7.51661,4.24575 -0.78767,1.28103 -0.39826,0.73202 -0.0521,0.84183 -0.10511,1.42744 -0.10721,1.20783 -0.36974,0.51242 -0.85177,1.09804 -2.41201,3.11108 c -0.34087,-0.25288 -0.60639,-0.66446 -0.88134,-0.98822 -0.51831,-0.61041 -1.03626,-1.22124 -1.55632,-1.83006 -0.18658,-0.21844 -0.37049,-0.43902 -0.55547,-0.65882 -0.0662,-0.0785 -0.19146,-0.17992 -0.18979,-0.2928 0.002,-0.15377 0.21693,-0.30078 0.311,-0.40263 0.28055,-0.30368 0.55111,-0.61719 0.83794,-0.91502 0.82411,-0.85577 1.64034,-1.7408 2.42303,-2.63528 0.27278,-0.31172 0.55831,-0.61305 0.84228,-0.91449 0.12206,-0.12946 0.24469,-0.32908 0.40325,-0.41371 0.13457,-0.0719 0.25656,0.046 0.36259,0.11947 0.19219,0.1331 0.54631,0.50396 0.79886,0.40511 0.19861,-0.0777 0.37751,-0.27016 0.54469,-0.39988 0.37298,-0.28938 0.74967,-0.57441 1.12568,-0.85986 0.19792,-0.15027 0.38404,-0.33508 0.61731,-0.42551 m 3.12284,0.95161 c 0.32001,0.48772 0.72275,0.93134 1.08171,1.39084 0.15066,0.19288 0.39198,0.41921 0.46105,0.65883 0.0887,0.30788 -0.0924,0.79524 -0.16751,1.09803 -0.13244,0.53432 -0.2805,1.06166 -0.48378,1.57386 -0.14842,0.37405 -0.33888,0.72719 -0.49204,1.09801 h -0.0726 l -0.90964,-2.37907 -0.35404,-0.98821 0.16715,-1.02484 0.13699,-0.69543 0.0991,-0.38875 0.53369,-0.34327 m -18.01084,0.25621 1.168,1.15715 0.46607,0.36313 0.94411,-0.34904 0.6377,0.76864 1.42225,1.68363 4.23734,4.97775 1.6765,1.97647 0.70481,0.91502 c -0.86394,0.19963 -1.72508,0.3985 -2.61447,0.43777 -3.07839,0.1359 -6.07133,-0.90178 -8.38814,-2.95756 -0.66167,-0.58717 -1.25981,-1.25563 -1.7686,-1.98214 -0.15257,-0.21787 -0.448,-0.53589 -0.48775,-0.80523 -0.0172,-0.11719 0.0556,-0.22893 0.10499,-0.32941 0.11401,-0.23207 0.23259,-0.46211 0.34387,-0.69542 0.43503,-0.91204 0.85165,-1.87987 1.37179,-2.7451 h 0.0364 c 0,0.5521 0.0474,1.09705 0.0712,1.64706 0.0139,0.32053 -0.0441,0.64492 0.16405,0.91507 0.51906,0.67353 1.11704,1.29294 1.6684,1.93982 0.099,0.11631 0.2115,0.28968 0.35096,0.35876 0.11513,0.0571 0.25542,-0.004 0.27047,-0.13982 0.026,-0.23379 -0.34477,-0.53361 -0.48176,-0.69472 -0.33333,-0.39198 -0.67119,-0.78019 -1.00571,-1.17123 -0.15296,-0.17884 -0.34739,-0.34761 -0.47114,-0.54901 -0.0856,-0.13926 -0.0564,-0.31938 -0.0582,-0.47583 -0.004,-0.26757 -0.0302,-0.53646 -0.0367,-0.8052 -0.0168,-0.69624 -0.0252,-1.43444 -0.13576,-2.12287 -0.0472,-0.29345 -0.10314,-0.58518 -0.15129,-0.87843 -0.0234,-0.14166 -0.0725,-0.29918 -0.0393,-0.43922 z"
       id="path1"
       sodipodi:nodetypes="cssccssscsssssssssssssssccssssssssssssscsssssscccsssssssssssscssscsssccccccccssssssccccccccsssssscssssccccccssssccsccscccccccssssssssccccccccccsssssssssssssccssssccccccccccccccccccsssssccssssssssssssc" />
  </g>
</svg>
