<?xml version="1.0" encoding="UTF-8" standalone="no"?>
<!-- Created with Inkscape (http://www.inkscape.org/) -->

<svg
   version="1.1"
   id="svg1"
   width="20"
   height="20"
   viewBox="0 0 20 20"
   sodipodi:docname="Favicon_logo.svg"
   inkscape:version="1.3 (0e150ed6c4, 2023-07-21)"
   xmlns:inkscape="http://www.inkscape.org/namespaces/inkscape"
   xmlns:sodipodi="http://sodipodi.sourceforge.net/DTD/sodipodi-0.dtd"
   xmlns="http://www.w3.org/2000/svg"
   xmlns:svg="http://www.w3.org/2000/svg">
  <defs
     id="defs1" />
  <sodipodi:namedview
     id="namedview1"
     pagecolor="#ffffff"
     bordercolor="#000000"
     borderopacity="0.25"
     inkscape:showpageshadow="2"
     inkscape:pageopacity="0.0"
     inkscape:pagecheckerboard="0"
     inkscape:deskcolor="#d1d1d1"
     inkscape:zoom="13.160815"
     inkscape:cx="43.652312"
     inkscape:cy="18.273944"
     inkscape:window-width="1920"
     inkscape:window-height="1094"
     inkscape:window-x="-11"
     inkscape:window-y="-11"
     inkscape:window-maximized="1"
     inkscape:current-layer="g1"
     inkscape:clip-to-page="true" />
  <g
     inkscape:groupmode="layer"
     inkscape:label="Image"
     id="g1"
     transform="translate(-204.86549,-104.43669)">
    <path
       style="fill:#809782;fill-opacity:1;stroke:none;stroke-width:0.0454846"
       d="m 208.03849,114.21967 c 0.025,0.3083 0.10689,0.61818 0.15895,0.92345 0.0216,0.12613 0.0747,0.2762 0.0596,0.40402 -0.025,0.21062 -0.20363,0.44684 -0.29929,0.63487 l -0.68988,1.35633 -0.64603,1.26973 c -0.0749,0.14735 -0.22926,0.34715 -0.17732,0.51946 0.064,0.21195 0.24549,0.42503 0.37086,0.606 0.34336,0.49563 0.73328,0.9614 1.16449,1.38519 1.85913,1.82704 4.36756,2.82806 6.98879,2.82806 0.77156,0 1.53949,-0.0842 2.29044,-0.26346 0.17731,-0.0423 0.3544,-0.0878 0.52856,-0.14128 0.0724,-0.0222 0.16495,-0.0425 0.21721,-0.10052 0.15599,-0.17348 -0.12714,-0.41402 -0.22926,-0.53358 -0.28951,-0.33896 -0.58401,-0.6738 -0.87684,-1.01002 -0.0785,-0.0901 -0.27098,-0.24099 -0.22638,-0.37516 0.0411,-0.12354 0.17689,-0.2452 0.25754,-0.34629 0.17561,-0.2201 0.34735,-0.44311 0.52226,-0.66373 0.51813,-0.65354 1.04616,-1.30057 1.55336,-1.96233 0.20317,-0.26508 0.46996,-0.51726 0.63297,-0.80803 0.12327,-0.21984 0.0686,-0.53662 0.0922,-0.77916 0.0474,-0.48946 0.0756,-0.98132 0.10984,-1.47175 0.0138,-0.19848 -0.004,-0.41127 0.0444,-0.60602 0.0535,-0.21107 0.25101,-0.42273 0.36796,-0.60601 0.30314,-0.47498 0.68594,-0.95667 0.9118,-1.47176 h 0.0586 c 0.16905,0.34966 0.46845,0.66817 0.7003,0.98117 0.0877,0.11837 0.23411,0.26027 0.27172,0.40402 0.0377,0.14421 -0.0444,0.34772 -0.0734,0.49057 -0.0548,0.26907 -0.1058,0.53868 -0.15866,0.80803 -0.0276,0.14027 -0.0752,0.28901 -0.0716,0.43287 0.004,0.20078 0.13305,0.42146 0.20683,0.60602 0.15312,0.38303 0.3012,0.76885 0.44789,1.1543 0.15448,0.40588 0.31591,0.81381 0.48951,1.21205 0.0583,0.1339 0.15621,0.37165 0.34947,0.25452 0.10247,-0.0621 0.15929,-0.21331 0.21666,-0.31225 0.17412,-0.30025 0.31031,-0.6315 0.4405,-0.9523 0.55645,-1.37126 0.79367,-2.89034 0.65101,-4.35754 -0.1342,-1.38004 -0.51431,-2.70813 -1.20489,-3.92468 -1.86401,-3.28368 -5.65883,-5.22778 -9.45947,-4.87207 -4.09399,0.38315 -7.60018,3.30654 -8.60014,7.23842 -0.28318,1.11343 -0.34005,2.2384 -0.23865,3.37637 0.0242,0.27163 0.0733,0.53953 0.11985,0.80802 0.0188,0.10836 0.0309,0.25397 0.14764,0.30555 0.0978,0.0432 0.18925,-0.0169 0.26097,-0.0785 0.15947,-0.13706 0.29052,-0.31032 0.44059,-0.45785 0.63612,-0.62539 1.24278,-1.27906 1.87934,-1.90462 m 16.29739,1.06773 h -0.0294 c -0.26636,-0.35317 -0.54932,-0.6951 -0.82805,-1.03888 -0.10527,-0.12984 -0.22142,-0.35354 -0.37854,-0.42643 -0.26019,-0.12074 -0.50742,0.42794 -0.73884,0.16457 -0.3044,-0.3464 -0.55474,-0.75231 -0.8273,-1.12331 -0.078,-0.10626 -0.21147,-0.35908 -0.36931,-0.3457 -0.13572,0.0115 -0.27974,0.16891 -0.38172,0.24687 -0.27233,0.2082 -0.55015,0.40934 -0.82222,0.61787 -0.0942,0.0721 -0.30837,0.28803 -0.43785,0.25056 -0.14342,-0.0414 -0.27664,-0.28557 -0.36745,-0.39445 -0.31211,-0.37424 -0.62549,-0.74762 -0.93308,-1.12546 -0.10163,-0.12493 -0.28625,-0.45749 -0.46512,-0.47003 -0.0878,-0.007 -0.16804,0.0655 -0.23375,0.11307 -0.13306,0.0962 -0.25834,0.20692 -0.41112,0.27039 -0.53348,-0.70726 -1.10826,-1.39025 -1.66792,-2.07777 -0.13236,-0.16261 -0.26051,-0.32841 -0.39347,-0.49056 -0.0595,-0.0725 -0.12928,-0.18248 -0.22937,-0.20287 -0.146,-0.0298 -0.29405,0.20221 -0.38133,0.28942 -0.32036,0.32015 -0.6168,0.66326 -0.93976,0.98117 -0.93813,0.92348 -1.82857,1.9022 -2.73354,2.85692 -0.31198,0.32913 -0.63488,0.64759 -0.94203,0.98117 -0.13429,0.14585 -0.29058,0.27169 -0.40612,0.43286 l -0.35238,-0.28856 -0.52856,-0.51945 -0.38174,-0.30398 -0.23217,0.13026 -0.44324,0.4623 -1.05448,1.06774 -0.79548,0.77917 c -0.0808,-0.32978 -0.0966,-0.67352 -0.12009,-1.01003 -0.0794,-1.1382 0.061,-2.28521 0.40813,-3.37637 0.42307,-1.33019 1.15552,-2.55822 2.12251,-3.57838 2.42897,-2.56256 6.29336,-3.54653 9.68769,-2.50989 3.22176,0.9839 5.72482,3.65303 6.43704,6.89628 0.14498,0.66022 0.20641,1.3179 0.20156,1.9912 -0.002,0.24064 0.0383,0.51812 -0.0316,0.7503 m -9.45542,-5.48299 h 0.0294 l 1.56879,1.96233 0.3694,0.46172 0.23483,0.19304 0.2349,-0.1066 0.44045,-0.2596 c 0.31401,0.4665 0.72047,0.89685 1.08412,1.32745 0.0925,0.10947 0.38639,0.36056 0.35823,0.51453 -0.0132,0.0721 -0.0968,0.1239 -0.15043,0.16582 -0.12277,0.0959 -0.38946,0.37424 -0.5578,0.31342 -0.18443,-0.0666 -0.3676,-0.24007 -0.52856,-0.35039 -0.0757,-0.0519 -0.16376,-0.12498 -0.26313,-0.10825 -0.11071,0.0185 -0.19274,0.14162 -0.26584,0.21523 -0.20424,0.20569 -0.40759,0.41793 -0.59935,0.63486 -0.69177,0.78257 -1.44794,1.51091 -2.15555,2.27976 -0.26737,0.29052 -0.54896,0.57011 -0.81028,0.86575 -0.0738,0.0835 -0.21132,0.2826 -0.33729,0.2826 -0.0754,0 -0.13329,-0.0888 -0.17645,-0.13845 l -0.37616,-0.43274 c -0.50192,-0.57631 -1.01836,-1.14308 -1.50554,-1.73146 v -0.0288 l 1.55055,-1.87577 0.68117,-0.83688 c 0.15148,0.0726 0.24073,0.21759 0.3421,0.3463 0.14504,0.18415 0.29541,0.36415 0.44049,0.5483 0.0715,0.0909 0.19022,0.29826 0.33271,0.26689 0.11379,-0.0251 0.1514,-0.14413 0.10478,-0.23803 -0.0926,-0.18633 -0.27253,-0.35769 -0.40367,-0.51945 l -0.39352,-0.49058 c -0.0614,-0.0755 -0.14951,-0.15953 -0.1633,-0.25972 -0.0126,-0.0919 0.0368,-0.20217 0.0642,-0.28858 l 0.16983,-0.54831 c 0.16404,-0.51777 0.30406,-1.04288 0.47544,-1.55831 0.0648,-0.19501 0.0967,-0.43094 0.20555,-0.60601 m -0.46983,0.28856 -0.53678,1.76033 -0.29755,0.92347 -0.81586,1.01002 -1.52118,1.81804 h -0.0294 c -0.12171,-0.14688 -0.25055,-0.28781 -0.37452,-0.43286 -0.0655,-0.0768 -0.13818,-0.18231 -0.24217,-0.21045 -0.17875,-0.0484 -0.45473,0.15126 -0.61663,0.2139 -0.107,0.0413 -0.24217,0.0388 -0.28613,-0.0906 -0.0446,-0.1311 0.14759,-0.26705 0.2274,-0.34572 0.29336,-0.28926 0.56561,-0.59951 0.85273,-0.89461 0.74468,-0.76533 1.5027,-1.52352 2.22557,-2.30862 0.29788,-0.32353 0.60409,-0.63948 0.91411,-0.95189 0.16509,-0.16635 0.30573,-0.35626 0.50038,-0.49101 m 6.07848,3.34753 -0.63697,1.01002 -0.32206,0.57715 -0.0421,0.66374 -0.085,1.12545 -0.0867,0.95231 -0.299,0.40401 -0.6888,0.86574 -1.95053,2.45291 c -0.27565,-0.19938 -0.49037,-0.52389 -0.71271,-0.77915 -0.41915,-0.48128 -0.838,-0.96288 -1.25856,-1.4429 -0.15088,-0.17223 -0.2996,-0.34614 -0.44919,-0.51944 -0.0535,-0.0619 -0.15483,-0.14186 -0.15348,-0.23086 0.002,-0.12124 0.17543,-0.23715 0.2515,-0.31745 0.22687,-0.23943 0.44567,-0.48662 0.67762,-0.72144 0.66643,-0.67473 1.3265,-1.37252 1.95944,-2.07777 0.22059,-0.24577 0.45149,-0.48335 0.68113,-0.72102 0.0987,-0.10207 0.19787,-0.25946 0.32609,-0.32619 0.10883,-0.0567 0.20748,0.0363 0.29322,0.0942 0.15542,0.10494 0.44179,0.39734 0.64602,0.3194 0.16061,-0.0613 0.30528,-0.213 0.44047,-0.31528 0.30162,-0.22816 0.60624,-0.45289 0.91031,-0.67795 0.16005,-0.11848 0.31056,-0.26419 0.4992,-0.33549 m 2.52536,0.75029 c 0.25878,0.38454 0.58447,0.73431 0.87475,1.0966 0.12183,0.15207 0.31698,0.33052 0.37284,0.51945 0.0717,0.24274 -0.0747,0.627 -0.13546,0.86573 -0.1071,0.42128 -0.22684,0.83706 -0.39122,1.2409 -0.12003,0.29492 -0.27405,0.57335 -0.3979,0.86572 h -0.0587 l -0.7356,-1.87576 -0.2863,-0.77915 0.13517,-0.80803 0.11078,-0.5483 0.0801,-0.30651 0.43158,-0.27065 m -14.56488,0.20201 0.94453,0.91234 0.3769,0.28631 0.76347,-0.2752 0.51569,0.60603 1.15014,1.32745 3.42662,3.92467 1.35574,1.55833 0.56996,0.72144 c -0.69864,0.1574 -1.39502,0.3142 -2.11425,0.34516 -2.48941,0.10715 -4.90972,-0.711 -6.78326,-2.33187 -0.53508,-0.46295 -1.01878,-0.98999 -1.43022,-1.5628 -0.12338,-0.17178 -0.36229,-0.42252 -0.39443,-0.63488 -0.0139,-0.0924 0.045,-0.1805 0.0849,-0.25972 0.0922,-0.18297 0.18809,-0.36435 0.27808,-0.5483 0.3518,-0.71909 0.68871,-1.48217 1.10933,-2.16435 h 0.0294 c 0,0.4353 0.0383,0.86496 0.0576,1.29861 0.0112,0.25272 -0.0357,0.50848 0.13266,0.72148 0.41975,0.53104 0.90332,1.01941 1.34919,1.52944 0.0801,0.0917 0.17103,0.22839 0.28381,0.28286 0.0931,0.045 0.20655,-0.003 0.21872,-0.11024 0.021,-0.18433 -0.2788,-0.42072 -0.38958,-0.54775 -0.26956,-0.30905 -0.54278,-0.61513 -0.81329,-0.92345 -0.1237,-0.141 -0.28093,-0.27407 -0.381,-0.43286 -0.0692,-0.1098 -0.0456,-0.25181 -0.0471,-0.37516 -0.003,-0.21097 -0.0244,-0.42297 -0.0297,-0.63486 -0.0136,-0.54894 -0.0204,-1.13097 -0.10979,-1.67376 -0.0382,-0.23137 -0.0834,-0.46138 -0.12234,-0.69259 -0.0189,-0.11169 -0.0586,-0.23589 -0.0318,-0.3463 z"
       id="path1"
       sodipodi:nodetypes="cssccssscsssssssssssssssccssssssssssssscsssssscccsssssssssssscssscsssccccccccssssssccccccccsssssscssssccccccssssccsccscccccccssssssssccccccccccsssssssssssssccssssccccccccccccccccccsssssccssssssssssssc" />
  </g>
</svg>
