<?xml version="1.0" encoding="UTF-8" standalone="no"?>
<!-- Created with Inkscape (http://www.inkscape.org/) -->

<svg
   version="1.1"
   id="svg1"
   width="8in"
   height="8in"
   viewBox="0 0 884.57802 884.57807"
   sodipodi:docname="Logo_large_no_text.svg"
   inkscape:version="1.3 (0e150ed6c4, 2023-07-21)"
   xmlns:inkscape="http://www.inkscape.org/namespaces/inkscape"
   xmlns:sodipodi="http://sodipodi.sourceforge.net/DTD/sodipodi-0.dtd"
   xmlns="http://www.w3.org/2000/svg"
   xmlns:svg="http://www.w3.org/2000/svg">
  <defs
     id="defs1" />
  <sodipodi:namedview
     id="namedview1"
     pagecolor="#ffffff"
     bordercolor="#000000"
     borderopacity="0.25"
     inkscape:showpageshadow="2"
     inkscape:pageopacity="0.0"
     inkscape:pagecheckerboard="0"
     inkscape:deskcolor="#d1d1d1"
     inkscape:zoom="1.2157738"
     inkscape:cx="336"
     inkscape:cy="438.81518"
     inkscape:window-width="1920"
     inkscape:window-height="1094"
     inkscape:window-x="-11"
     inkscape:window-y="-11"
     inkscape:window-maximized="1"
     inkscape:current-layer="g1"
     inkscape:clip-to-page="true"
     inkscape:document-units="in" />
  <g
     inkscape:groupmode="layer"
     inkscape:label="Image"
     id="g1"
     transform="translate(-204.86549,-104.43669)">
    <path
       style="fill:#809782;fill-opacity:1;stroke:none;stroke-width:1.75192"
       d="m 382.60089,529.91001 c 0.95845,11.91459 4.10261,23.89089 6.10228,35.68877 0.82615,4.87408 2.86329,10.67408 2.28319,15.61386 -0.95593,8.1399 -7.81649,17.26925 -11.4888,24.53602 l -26.48259,52.4179 -24.7987,49.07207 c -2.87765,5.69434 -8.80048,13.41603 -6.80677,20.07494 2.45267,8.19179 9.42366,16.42673 14.23626,23.42076 13.18043,19.15467 28.14784,37.15556 44.7007,53.53315 71.36603,70.61001 167.65662,109.29689 268.27711,109.29689 29.61785,0 59.09606,-3.25529 87.92274,-10.18205 6.80622,-1.63547 13.6037,-3.39021 20.28987,-5.46009 2.77255,-0.85838 6.33155,-1.64039 8.33755,-3.88634 5.98813,-6.70442 -4.88004,-16.00044 -8.80031,-20.62139 -11.1137,-13.10026 -22.41846,-26.04068 -33.65898,-39.0346 -3.01211,-3.48195 -10.40202,-9.3136 -8.68987,-14.49857 1.57662,-4.77463 6.78943,-9.47644 9.88577,-13.38329 6.74141,-8.50615 13.3338,-17.12488 20.04812,-25.65132 19.88943,-25.25758 40.15844,-50.26329 59.62841,-75.83864 7.79901,-10.24463 18.03979,-19.99058 24.29774,-31.22769 4.73156,-8.49628 2.63744,-20.73884 3.53904,-30.1124 1.81956,-18.91658 2.9048,-37.92539 4.21668,-56.879 0.53092,-7.67091 -0.1941,-15.89446 1.70033,-23.42077 2.05324,-8.15754 9.63483,-16.33735 14.12498,-23.42074 11.63631,-18.35664 26.33042,-36.97275 35.00021,-56.879 h 2.25443 c 6.48967,13.51298 17.98238,25.82225 26.88265,37.91932 3.36556,4.57431 8.98642,10.05831 10.43019,15.61386 1.44838,5.57321 -1.70348,13.43875 -2.81969,18.95965 -2.10244,10.39866 -4.06146,20.81796 -6.09098,31.22768 -1.05689,5.42096 -2.88731,11.16982 -2.7537,16.72913 0.18659,7.75988 5.10721,16.28861 7.93919,23.42075 5.87812,14.80332 11.56197,29.71417 17.19354,44.61096 5.92993,15.68582 12.12671,31.45152 18.79032,46.84153 2.24067,5.17518 5.99644,14.3638 13.41526,9.83693 3.93328,-2.40002 6.11434,-8.24365 8.31677,-12.06747 6.6835,-11.60393 11.91179,-24.40594 16.90909,-36.80406 21.36018,-52.99465 30.46668,-111.70317 24.99008,-168.40642 -5.1512,-53.33441 -19.7422,-104.66112 -46.25158,-151.6773 -71.55335,-126.90501 -217.2241,-202.03905 -363.11874,-188.292 -157.15487,14.80815 -291.74573,127.78875 -330.13122,279.74449 -10.87001,43.03091 -13.05335,86.50776 -9.16038,130.48711 0.92925,10.49775 2.81183,20.85143 4.60019,31.22766 0.72142,4.18596 1.18544,9.81521 5.66736,11.80849 3.75253,1.66882 7.26458,-0.65376 10.01798,-3.03603 6.12169,-5.29663 11.15182,-11.99275 16.91254,-17.69464 24.41855,-24.16921 47.70662,-49.43183 72.14174,-73.60811 m 625.60411,41.26516 h -1.1272 c -10.22488,-13.64909 -21.08667,-26.86385 -31.78641,-40.14988 -4.04117,-5.0179 -8.49939,-13.66318 -14.53024,-16.48039 -9.98854,-4.66591 -19.47869,16.5388 -28.36219,6.3603 -11.68445,-13.38779 -21.29411,-29.0748 -31.75766,-43.41307 -2.99734,-4.10733 -8.11679,-13.87762 -14.17632,-13.36009 -5.20952,0.44492 -10.73847,6.52814 -14.65291,9.54096 -10.45406,8.04604 -21.11828,15.81976 -31.562,23.87854 -3.61644,2.79063 -11.83757,11.13171 -16.80738,9.68385 -5.50547,-1.60396 -10.6199,-11.03681 -14.10578,-15.24469 -11.98134,-14.46297 -24.01022,-28.89312 -35.81775,-43.4957 -3.90384,-4.82787 -10.98823,-17.68067 -17.85459,-18.16534 -3.37351,-0.23811 -6.4503,2.53345 -8.9733,4.36987 -5.10737,3.71743 -9.91652,7.99664 -15.78104,10.44964 -20.47878,-27.3334 -42.54277,-53.72913 -64.02598,-80.29976 -5.08112,-6.28438 -10.00058,-12.69222 -15.10428,-18.95875 -2.28069,-2.80032 -4.96259,-7.05237 -8.80463,-7.84051 -5.60464,-1.14971 -11.28825,7.81488 -14.63821,11.18542 -12.29725,12.373 -23.67721,25.63301 -36.07429,37.91934 -36.01181,35.69007 -70.19298,73.51451 -104.93183,110.41214 -11.9759,12.72009 -24.37126,25.02725 -36.16132,37.91935 -5.15476,5.63662 -11.15464,10.49981 -15.58968,16.72912 l -13.52658,-11.15276 -20.28985,-20.07493 -14.65381,-11.74823 -8.91245,5.03418 -17.01433,17.8668 -40.47799,41.26514 -30.53568,30.11242 c -3.10232,-12.74486 -3.70879,-26.02979 -4.60978,-39.03462 -3.04747,-43.98846 2.34416,-88.31667 15.66625,-130.48711 16.2403,-51.40805 44.35665,-98.86792 81.47599,-138.294 93.24115,-99.03559 241.58205,-137.06301 371.87998,-97.00041 123.67286,38.02553 219.75689,141.17941 247.09664,266.52212 5.5655,25.51529 7.9233,50.93259 7.7374,76.95391 -0.066,9.29987 1.4701,20.0237 -1.2108,28.99714 M 645.24192,359.27305 h 1.12723 l 60.22074,75.83865 14.17977,17.84351 9.01426,7.46099 9.01683,-4.11856 16.90821,-10.03319 c 12.05372,18.02926 27.65648,34.66111 41.61556,51.3026 3.5483,4.23014 14.83256,13.93442 13.75103,19.88478 -0.50617,2.78489 -3.71471,4.78892 -5.77437,6.40853 -4.71223,3.70557 -14.94979,14.46386 -21.41186,12.11315 -7.07976,-2.5754 -14.11143,-9.27848 -20.28986,-13.5417 -2.9076,-2.00633 -6.28588,-4.82976 -10.10055,-4.18485 -4.24976,0.71848 -7.39883,5.47296 -10.20501,8.31813 -7.83985,7.94905 -15.64601,16.15139 -23.00696,24.53514 -26.55475,30.24467 -55.58179,58.39261 -82.74417,88.10668 -10.26369,11.22784 -21.07328,22.03313 -31.1045,33.45822 -2.83365,3.22746 -8.11218,10.92213 -12.94734,10.92213 -2.90014,0 -5.11706,-3.43105 -6.77369,-5.35093 L 572.27825,661.5124 c -19.26743,-22.27283 -39.09194,-44.17688 -57.79322,-66.91646 v -1.11528 l 59.52058,-72.49283 26.14773,-32.34295 c 5.81511,2.80376 9.241,8.40893 13.13264,13.38328 5.5676,7.11661 11.33971,14.07354 16.90822,21.19022 2.74935,3.51382 7.30268,11.52701 12.77245,10.31458 4.36776,-0.96817 5.81111,-5.56996 4.02005,-9.19931 -3.55345,-7.20061 -10.46176,-13.82366 -15.49578,-20.07494 l -15.10606,-18.95965 c -2.3546,-2.91979 -5.73914,-6.16546 -6.26834,-10.03747 -0.4851,-3.54911 1.41623,-7.81311 2.46495,-11.15276 l 6.51884,-21.19022 c 6.29702,-20.011 11.67206,-40.30465 18.25112,-60.2248 2.48911,-7.5366 3.71235,-16.65445 7.89049,-23.42076 m -18.03543,11.15274 -20.60559,68.03173 -11.42171,35.6888 -31.31853,39.03459 -58.39334,70.26228 h -1.12723 c -4.67156,-5.67643 -9.61707,-11.12306 -14.37631,-16.72913 -2.51931,-2.96761 -5.30418,-7.0454 -9.29609,-8.13303 -6.86187,-1.86963 -17.45518,5.84574 -23.67062,8.26645 -4.10547,1.599 -9.29618,1.49851 -10.98338,-3.50162 -1.70939,-5.0662 5.66587,-10.32031 8.72898,-13.3609 11.26128,-11.17867 21.71201,-23.16931 32.73359,-34.5735 28.58601,-29.5784 57.68438,-58.88 85.43261,-89.22195 11.43444,-12.5032 23.18859,-24.71412 35.08979,-36.78772 6.33706,-6.42889 11.73584,-13.76837 19.20783,-18.976 m 233.33345,129.3718 -24.4517,39.03462 -12.36283,22.30549 -1.61165,25.65129 -3.26425,43.4957 -3.32688,36.80406 -11.47738,15.61384 -26.44083,33.45823 -74.87454,94.79832 c -10.58126,-7.7055 -18.82396,-20.24674 -27.35841,-30.11242 -16.0902,-18.59994 -32.16822,-37.21213 -48.31195,-55.7637 -5.79216,-6.65612 -11.50088,-13.37717 -17.24311,-20.07494 -2.05105,-2.39228 -5.94361,-5.48217 -5.89174,-8.9222 0.0706,-4.68492 6.73426,-9.16513 9.65438,-12.26801 8.70889,-9.25384 17.10789,-18.80684 26.01111,-27.88187 25.58277,-26.07633 50.92006,-53.04401 75.21725,-80.29975 8.46772,-9.49883 17.33069,-18.68043 26.14601,-27.86553 3.78542,-3.94422 7.59569,-10.02758 12.51763,-12.60619 4.1778,-2.18874 7.96479,1.4048 11.25564,3.64099 5.96659,4.05444 16.95891,15.35578 24.79872,12.34368 6.16569,-2.36886 11.71859,-8.23206 16.90821,-12.18448 11.57795,-8.81768 23.27164,-17.50272 34.94365,-26.20116 6.14412,-4.57881 11.92198,-10.21018 19.16267,-12.96597 m 96.94044,28.99714 c 9.93413,14.86112 22.43657,28.37849 33.57896,42.38043 4.67668,5.87697 12.16786,12.77376 14.31196,20.07494 2.7549,9.38139 -2.8688,24.23196 -5.1995,33.45823 -4.11268,16.28105 -8.7078,32.34977 -15.01728,47.95679 -4.60806,11.39822 -10.52016,22.15886 -15.27478,33.45824 h -2.25444 l -28.23691,-72.49285 -10.99034,-30.11239 5.189,-31.22768 4.25234,-21.19022 3.07457,-11.84551 16.56642,-10.45998 m -559.09845,7.80693 36.25787,35.25936 14.46767,11.06495 29.3067,-10.63553 19.7958,23.42075 44.15016,51.30263 131.53703,151.67729 52.04235,60.22484 21.87895,27.88184 c -26.81798,6.08295 -53.55019,12.14305 -81.15944,13.33946 -95.56008,4.14048 -188.46791,-27.47847 -260.3866,-90.12049 -20.54044,-17.89094 -39.10802,-38.26003 -54.90214,-60.39771 -4.73632,-6.63854 -13.90713,-16.32865 -15.14086,-24.53603 -0.53707,-3.57285 1.72723,-6.97579 3.25814,-10.03747 3.53583,-7.07135 7.22003,-14.08081 10.67463,-21.19022 13.50403,-27.79078 26.43709,-57.28203 42.58367,-83.64557 h 1.1272 c 0,16.82284 1.46832,33.42767 2.21007,50.18734 0.43219,9.76627 -1.37002,19.65113 5.09249,27.88276 16.1126,20.52344 34.67579,39.39755 51.79097,59.10863 3.07637,3.54304 6.56535,8.82677 10.89466,10.9316 3.57531,1.73827 7.92895,-0.1348 8.3958,-4.26145 0.80608,-7.12389 -10.70186,-16.25951 -14.9547,-21.16871 -10.34733,-11.94435 -20.83524,-23.7735 -31.21931,-35.68877 -4.74912,-5.44936 -10.78417,-10.5924 -14.62593,-16.72913 -2.65559,-4.24199 -1.75006,-9.73154 -1.80738,-14.49855 -0.098,-8.15367 -0.93664,-16.34642 -1.13938,-24.53604 -0.52522,-21.21452 -0.78214,-43.70821 -4.21488,-64.68591 -1.46316,-8.94159 -3.19995,-17.83093 -4.69586,-26.76658 -0.72255,-4.3162 -2.24962,-9.11607 -1.21768,-13.38329 z"
       id="path1"
       sodipodi:nodetypes="cssccssscsssssssssssssssccssssssssssssscsssssscccsssssssssssscssscsssccccccccssssssccccccccsssssscssssccccccssssccsccscccccccssssssssccccccccccsssssssssssssccssssccccccccccccccccccsssssccssssssssssssc" />
  </g>
</svg>
