<?xml version="1.0" encoding="UTF-8" standalone="no"?>
<!-- Created with Inkscape (http://www.inkscape.org/) -->

<svg
   version="1.1"
   id="svg1"
   width="960"
   height="960"
   viewBox="0 0 960 960"
   sodipodi:docname="Logo - svg.svg"
   inkscape:version="1.3 (0e150ed6c4, 2023-07-21)"
   xmlns:inkscape="http://www.inkscape.org/namespaces/inkscape"
   xmlns:sodipodi="http://sodipodi.sourceforge.net/DTD/sodipodi-0.dtd"
   xmlns="http://www.w3.org/2000/svg"
   xmlns:svg="http://www.w3.org/2000/svg">
  <defs
     id="defs1" />
  <sodipodi:namedview
     id="namedview1"
     pagecolor="#ffffff"
     bordercolor="#000000"
     borderopacity="0.25"
     inkscape:showpageshadow="2"
     inkscape:pageopacity="0.0"
     inkscape:pagecheckerboard="0"
     inkscape:deskcolor="#d1d1d1"
     inkscape:zoom="0.85104167"
     inkscape:cx="447.68666"
     inkscape:cy="362.49694"
     inkscape:window-width="1920"
     inkscape:window-height="1094"
     inkscape:window-x="-11"
     inkscape:window-y="1069"
     inkscape:window-maximized="1"
     inkscape:current-layer="g1" />
  <g
     inkscape:groupmode="layer"
     inkscape:label="Image"
     id="g1">
    <path
       style="fill:#809782;fill-opacity:1;stroke:none"
       d="m 448.01733,130.66241 -0.64,-8.32 c 2.45707,-0.31055 8.74801,0.13852 10.15258,-2.23656 0.87414,-1.47813 -0.54785,-2.59899 -1.90219,-2.73133 -2.67012,-0.26086 -6.34062,0.37391 -8.89039,1.12789 l -0.64,-8.96 c 3.29586,-0.14156 7.01168,-0.31156 10.22766,-1.04594 1.21945,-0.27844 3.27632,-0.93086 2.73136,-2.62812 -0.49711,-1.54821 -2.71929,-1.45008 -3.99953,-1.41782 -2.79988,0.0705 -11.66761,-0.13593 -13.05281,2.73485 -0.88117,1.82625 -0.0443,4.30211 0.14516,6.19703 0.51082,5.10867 1.04574,10.23977 1.40398,15.36 0.13231,1.89109 0.19438,5.03523 2.17926,6.01336 2.96871,1.46297 9.97137,-0.30633 13.15258,-0.9057 1.15797,-0.21813 3.29472,-0.72875 2.73136,-2.41383 -0.44746,-1.33836 -2.21742,-1.35625 -3.36199,-1.40102 -3.42223,-0.1339 -6.80668,0.61774 -10.23703,0.62719 m 62.08,-23.98125 c -8.9943,2.07555 -13.46449,12.56219 -9.65383,20.78078 2.72817,5.88399 11.43746,10.75734 17.87903,7.67453 1.30539,-0.62476 2.63355,-2.5525 0.98566,-3.66414 -1.70367,-1.14922 -4.68668,0.28696 -6.65086,-0.0232 -6.26156,-0.98875 -11.51352,-8.11266 -8.59359,-14.22672 1.8464,-3.86617 6.6873,-7.47969 11.15359,-6.67555 1.97195,0.35508 4.7682,2.53446 6.75012,1.37383 2.37386,-1.39016 -0.17805,-3.66234 -1.64297,-4.33484 -3.05617,-1.40305 -6.96168,-1.65821 -10.22715,-0.90469 m -85.12,22.70125 c -4.64336,-4.27695 -9.37074,-8.48562 -14.08,-12.69133 -1.35613,-1.21109 -4.10199,-4.20195 -6.18715,-3.19656 -2.15637,1.03969 -0.69308,4.64648 -0.29582,6.28789 1.13215,4.67789 2.06516,9.40211 3.2,14.08 0.47535,1.95945 0.61992,4.46984 1.7284,6.19609 0.84918,1.32243 2.86984,1.77329 3.53086,0 0.60906,-1.63398 -0.24172,-3.9475 -0.62223,-5.55609 -0.40402,-1.70789 -0.84879,-3.40422 -1.21972,-5.12 -0.60489,-2.79805 -1.27809,-5.56414 -2.05434,-8.32 4.56855,4.37242 9.40812,8.48078 14.08,12.74469 1.36211,1.2432 4.06207,4.19015 6.18715,3.14523 2.09258,-1.02898 0.8139,-4.63742 0.43605,-6.28992 -1.02586,-4.48656 -2.15871,-8.94477 -3.1516,-13.44 -0.47824,-2.16531 -0.66668,-4.94234 -1.91504,-6.83359 -1.01894,-1.54368 -2.78847,-1.27782 -3.26422,0.5289 -0.42582,1.61719 0.15,3.45063 0.50422,5.02469 l 1.12938,5.12 c 0.65738,2.77367 1.27996,5.56109 1.99406,8.32 m 120.32,-15.66125 c -17.83277,4.12203 -11.97937,32.9143 6.4,28.6657 17.83707,-4.1232 12.01023,-32.92125 -6.4,-28.6657 m 2.56,3.71953 c 13.31836,-1.33695 14.19008,19.95719 1.28,21.27359 -13.24004,1.35008 -14.15977,-19.9807 -1.28,-21.27359 m -163.46516,2.42906 c -1.93668,1.2793 -0.32531,4.72985 0.23356,6.31266 l 5.79406,16.63953 c 0.4843,1.38516 1.86281,5.3882 4.09184,3.78516 1.65886,-1.19305 0.22078,-4.25477 -0.25481,-5.70469 -1.82164,-5.55359 -3.54719,-11.18063 -5.63652,-16.63953 -0.52859,-1.3811 -1.86031,-5.95727 -4.22813,-4.39313 m 198.02516,13.99266 h 0.64 c 0.27242,3.44664 0.98668,6.85195 1.66422,10.24 l 1.40789,7.04 c 0.37672,1.88383 0.58191,7.27313 3.34617,7.27313 2.34863,0 3.27567,-3.67336 4.00149,-5.35313 2.43543,-5.63625 6.49117,-11.88727 7.6948,-17.91703 0.35863,-1.79664 -0.9334,-4.32133 -2.95012,-2.69031 -1.27,1.02711 -1.85543,3.17156 -2.51211,4.60734 -0.67785,1.48211 -1.30648,2.98383 -1.95211,4.48 -1.09211,2.53078 -2.26246,5.0293 -3.02023,7.68 -2.62859,-5.36992 -3.05707,-12.08562 -4.22422,-17.92 -0.3559,-1.77898 -0.45383,-5.38648 -2.36687,-6.28742 -2.4718,-1.16414 -3.85836,2.77703 -4.56,4.36742 -1.78512,4.04641 -3.47106,8.15609 -5.34817,12.16 -1.01168,2.15797 -2.60125,4.61398 -2.85582,7.02766 -0.19672,1.865 1.32,3.45601 3.09039,2.14867 1.23895,-0.91492 1.77344,-2.70695 2.36395,-4.05633 0.74668,-1.70625 1.46008,-3.42563 2.23308,-5.12 1.15875,-2.53992 2.28836,-5.09797 3.34766,-7.68 m -215.68,19.84 c -0.95055,-3.32508 -2.46508,-6.50328 -3.99852,-9.6 -0.94187,-1.90203 -1.83578,-3.80859 -2.67109,-5.76 -0.79047,-1.84672 -1.50934,-4.73148 -3.19508,-5.97633 -1.42398,-1.05156 -3.03398,-0.18398 -3.12937,1.53438 -0.12707,2.28961 1.62418,5.01992 2.59801,7.00195 2.42062,4.9268 4.05738,12.32063 7.81433,16.35305 2.61719,2.80906 7.5991,-0.74813 10.25875,-2.01133 1.30356,-0.61914 2.95172,-1.30445 3.36199,-2.85336 0.48524,-1.83195 -1.30297,-2.36633 -2.73136,-2.08492 -2.83766,0.55906 -5.64012,2.30219 -8.30766,3.39656 m 253.44,-9.26563 c -1.1241,0.1943 -2.21656,0.61977 -3.13285,1.30657 -4.02152,3.01437 -3.67528,8.01101 -1.11406,11.79906 1.56945,2.32125 4.21769,5.36922 1.98964,8.17328 -3.99429,5.02688 -7.38898,-1.21922 -8.98078,-4.22859 -0.53144,-1.00477 -1.48922,-1.74344 -2.65086,-1.17532 -2.27304,1.11165 -1.13882,4.53407 -0.29382,6.18126 2.03921,3.97507 6.03175,5.59796 10.34273,5.00835 1.39062,-0.19015 2.67863,-0.64195 3.81187,-1.48789 4.37282,-3.26429 3.39321,-8.3057 1.01133,-12.47109 -1.11386,-1.94789 -3.46929,-4.55156 -2.21726,-6.94469 2.95129,-5.64101 6.89527,3.56875 9.81527,1.64047 1.6757,-1.10656 0.40086,-3.69734 -0.53875,-4.81476 -1.87539,-2.23032 -5.16203,-3.48454 -8.04246,-2.98665 m -304.03803,9.88641 c -3.61136,0.23149 -8.79426,5.32766 -11.41185,7.62766 -1.02078,0.89695 -2.89393,2.70773 -1.53432,4.13281 1.51783,1.59094 3.75893,-0.58648 5.29483,-0.94375 1.79513,-0.41758 2.85492,0.75109 3.92097,2.02469 3.22688,3.85508 5.95895,8.12851 8.98766,12.13484 0.95328,1.26098 2.40617,3.53406 4.28543,3.25332 2.74668,-0.41031 0.73308,-3.98308 -0.0464,-5.17035 -2.31049,-3.51914 -4.99215,-6.88711 -7.53828,-10.24 -1.09338,-1.43977 -2.91164,-3.24547 -3.18568,-5.11063 -0.34334,-2.33679 2.33593,-3.26125 3.07308,-5.17382 0.53817,-1.39633 -0.34511,-2.63094 -1.84543,-2.53477 m 330.90518,7.09774 c -2.65406,0.40421 -4.86012,4.45289 -6.38715,6.36148 -2.63105,3.28852 -6.07512,6.73383 -7.2716,10.88 -1.94188,6.7291 3.23715,13.85629 10.4716,13.29578 6.90969,-0.53535 11.37727,-8.43586 15.23156,-13.29578 0.87555,-1.10402 4.98789,-5.76742 1.84203,-6.74469 -2.24796,-0.69836 -4.50273,2.76024 -5.62765,4.18516 -3.01047,3.81332 -8.56375,13.71953 -14.61782,10.58473 -8.74265,-4.527 3.14583,-15.31356 6.36,-19.5452 0.86895,-1.14406 3.92731,-6.31977 -9.7e-4,-5.72148 M 327.05733,380.90241 c 0.54418,6.83719 2.32934,13.7098 3.46469,20.48 0.46906,2.79699 1.6257,6.12531 1.29633,8.96 -0.54274,4.67109 -4.43797,9.90996 -6.52301,14.08 l -15.03604,30.08 -14.08,28.16 c -1.63384,3.2677 -4.99666,7.69879 -3.86468,11.52 1.39255,4.70086 5.35048,9.42648 8.08294,13.44 7.48346,10.99191 15.98153,21.32172 25.37977,30.72 40.51957,40.51953 95.19059,62.72 152.32,62.72 16.81617,0 33.55305,-1.86805 49.92,-5.84297 3.86438,-0.93851 7.72379,-1.94547 11.52,-3.13328 1.57418,-0.49258 3.59488,-0.94133 4.73383,-2.23016 3.39988,-3.84734 -2.77074,-9.18187 -4.99656,-11.83359 -6.31004,-7.51758 -12.72856,-14.94344 -19.11059,-22.4 -1.7102,-1.99812 -5.90598,-5.34461 -4.93387,-8.32 0.89516,-2.73992 3.85485,-5.43805 5.61285,-7.68 3.82758,-4.88125 7.57055,-9.82711 11.38274,-14.72 11.29265,-14.49406 22.80082,-28.84359 33.85531,-43.52 4.42805,-5.87887 10.24246,-11.4716 13.79555,-17.92 2.68644,-4.87559 1.49746,-11.90098 2.00937,-17.28 1.03309,-10.85527 1.64926,-21.76348 2.3941,-32.64 0.30145,-4.40195 -0.11019,-9.12105 0.9654,-13.44 1.16578,-4.68121 5.47039,-9.3752 8.01976,-13.44 6.60676,-10.53395 14.94965,-21.2168 19.87211,-32.64 h 1.28 c 3.68465,7.75441 10.20988,14.81809 15.2632,21.76 1.91086,2.62496 5.10223,5.77195 5.92196,8.96 0.82234,3.1982 -0.96719,7.71184 -1.60094,10.88 -1.19371,5.96727 -2.30598,11.94637 -3.45828,17.92 -0.60008,3.11082 -1.63934,6.4098 -1.56348,9.6 0.1059,4.45301 2.89973,9.34723 4.50766,13.44 3.33742,8.49488 6.56453,17.05148 9.76199,25.6 3.36684,9.00129 6.88519,18.04844 10.66859,26.88 1.27219,2.96977 3.40461,8.24266 7.6168,5.64492 2.2332,-1.37726 3.47156,-4.73062 4.72203,-6.92492 3.79469,-6.65891 6.7632,-14.00535 9.60047,-21.12 12.12773,-30.41098 17.29812,-64.10086 14.18867,-96.64 -2.92469,-30.60594 -11.20906,-60.05977 -26.26031,-87.04 C 623.15975,210.158 540.4521,167.04233 457.61733,174.93108 c -89.22801,8.49766 -165.64482,73.33156 -187.439,160.53133 -6.17168,24.69328 -7.41131,49.64246 -5.201,74.88 0.5276,6.02414 1.59648,11.96559 2.61186,17.92 0.4096,2.40211 0.67306,5.63246 3.21777,6.77629 2.13057,0.95766 4.12461,-0.37516 5.68791,-1.74223 3.47572,-3.03945 6.33168,-6.88203 9.60246,-10.15406 13.86414,-13.86949 27.08643,-28.36645 40.96,-42.24 m -39.8326,-203.46469 c -2.04304,1.46781 0.86307,4.55117 1.81334,5.70469 3.65535,4.43711 7.74934,8.5866 11.67061,12.79012 1.14076,1.22289 3.43023,4.35843 5.4731,3.02566 2.07844,-1.35594 -0.63179,-4.48039 -1.59162,-5.57578 -3.97553,-4.53707 -8.05752,-9.04621 -12.20148,-13.42766 -1.0358,-1.09515 -3.41004,-3.77711 -5.16395,-2.51703 m 395.0326,227.14469 h -0.64 c -5.80539,-7.83254 -11.97242,-15.41582 -18.04742,-23.04 -2.29446,-2.87953 -4.82571,-7.84062 -8.24985,-9.45727 -5.67121,-2.67753 -11.05945,9.49079 -16.10324,3.64985 -6.6341,-7.68258 -12.09019,-16.68457 -18.03109,-24.91258 -1.7018,-2.35699 -4.60848,-7.96367 -8.04891,-7.66668 -2.95781,0.25531 -6.09699,3.74617 -8.31949,5.47508 -5.93551,4.61722 -11.99035,9.07816 -17.92,13.70269 -2.05332,1.60141 -6.72102,6.38793 -9.54273,5.55707 -3.12586,-0.92043 -6.02969,-6.33347 -8.00887,-8.74816 -6.80266,-8.29957 -13.63231,-16.58031 -20.33629,-24.96 -2.21648,-2.77047 -6.23879,-10.14605 -10.13731,-10.42418 -1.91539,-0.13664 -3.6623,1.45383 -5.0948,2.50766 -2.8998,2.13324 -5.63031,4.58886 -8.96,5.99652 -11.62727,-15.68527 -24.15457,-30.83246 -36.35211,-46.08 -2.88492,-3.60629 -5.67805,-7.28344 -8.57578,-10.87949 -1.29492,-1.60696 -2.81762,-4.04699 -4.99902,-4.49926 -3.18215,-0.65977 -6.40914,4.48457 -8.31114,6.41875 -6.98203,7.10023 -13.44324,14.70949 -20.48195,21.76 -20.44648,20.48074 -39.85355,42.18629 -59.57727,63.36 -6.79957,7.29941 -13.8373,14.36188 -20.53136,21.76 -2.92672,3.23457 -6.33328,6.02531 -8.85137,9.6 l -7.68,-6.4 -11.52,-11.52 -8.32,-6.74172 -5.06023,2.88887 -9.66026,10.25285 -22.98222,23.68 -17.33729,17.28 c -1.76141,-7.31363 -2.10574,-14.93719 -2.61729,-22.4 -1.73027,-25.24277 1.33094,-50.68051 8.89483,-74.88 9.22078,-29.50051 25.18443,-56.73535 46.25973,-79.36 52.93964,-56.83156 137.16332,-78.65359 211.14273,-55.66367 70.21789,21.82094 124.77164,81.01578 140.29437,152.94367 3.15993,14.64195 4.4986,29.22766 4.39305,44.16 -0.0377,5.33672 0.83469,11.49059 -0.68742,16.64 m -21.76,-199.04 c 2.52023,-2.515 5.07156,-4.97617 7.73727,-7.3368 2.75304,-2.438 5.86906,-5.04918 8.05632,-8.02269 0.89024,-1.21028 1.95891,-3.95102 -0.51953,-4.09926 -2.28945,-0.13695 -4.35929,2.50238 -5.86617,3.88691 -4.26508,3.91879 -9.72672,8.16852 -12.94219,13.01184 -2.37679,3.58004 2.04555,7.11922 4.35703,9.57187 1.03118,1.09415 2.50993,2.75844 4.2,2.56442 1.62766,-0.18688 1.73141,-1.97848 1.22516,-3.17926 -1.11945,-2.65531 -3.97094,-4.79293 -6.24789,-6.39703 m -385.92,3.84 c -4.19816,-0.0348 -8.63494,-0.38594 -12.8,-0.91109 -1.47209,-0.18563 -4.0426,-0.77946 -5.06469,0.74617 -1.48068,2.21015 2.43465,5.1125 3.78518,6.29332 4.61318,4.03344 9.30363,9.64871 14.71654,12.57777 1.40055,0.75785 3.92115,0.81981 3.36199,-1.49629 -0.41966,-1.73824 -2.1248,-3.17808 -3.36199,-4.35261 -1.23279,-1.17036 -2.5618,-2.23383 -3.83703,-3.35653 -2.26869,-1.99734 -4.60762,-3.86551 -6.4,-6.30074 l 9.59951,1.1684 3.82026,-0.91457 0.26617,-4.09383 -2.16594,-9.6 c 2.22439,1.69336 4.28324,3.56594 6.4,5.39109 l 3.84,3.38618 c 0.93375,0.79937 7.71041,6.08683 7.09037,1.42519 -0.29334,-2.20547 -3.02016,-3.83734 -4.53037,-5.18863 -3.81662,-3.41504 -7.65295,-6.80418 -11.52,-10.16297 -1.20207,-1.04406 -4.08018,-4.01313 -5.74223,-2.11652 -1.97521,2.25398 0.37153,7.94906 0.87803,10.46566 0.47854,2.37762 0.88652,4.74352 1.6642,7.04 m 418.76391,-3.67605 c -2.85836,1.31 1.84281,6.12152 -0.33625,8.68496 -3.56196,4.19019 -9.08125,7.25183 -13.29532,10.77679 -1.13507,0.94946 -3.85687,3.23821 -2.14867,4.87899 1.54344,1.4825 4.12235,-0.71102 5.33633,-1.61828 4.36695,-3.26364 8.55781,-8.09856 13.4375,-10.53727 3.23266,-1.61559 5.25734,4.18887 7.925,2.31555 1.52773,-1.07281 0.13648,-3.33844 -0.58422,-4.42469 -1.89336,-2.85363 -4.25351,-5.73082 -6.57281,-8.24988 -0.88328,-0.95934 -2.27719,-2.50649 -3.76156,-1.82617 m -444.36391,37.59605 c -2.58213,0.0533 -5.10201,0.55551 -7.68,0.63109 -2.02775,0.0595 -9.02748,-0.36027 -9.75902,2.12297 -0.65848,2.23524 2.52144,3.93965 3.99951,4.89137 3.80865,2.45238 7.70205,4.77391 11.51951,7.21332 1.94836,1.24504 4.07607,3.13215 6.38766,3.6257 1.61556,0.34496 3.17109,-0.64179 2.45974,-2.43754 -0.70185,-1.77171 -2.85248,-2.8148 -4.3674,-3.76347 l -4.48,-2.80641 -7.04,-4.35703 9.59951,-1.01828 3.79703,-1.37629 -0.18666,-4.00594 -3.60988,-9.59949 c 2.25156,1.71801 4.64521,3.17457 7.04,4.68395 l 4.48,2.7916 c 1.514,0.94625 3.23477,2.27636 5.08248,2.41777 2.54365,0.19465 2.52848,-2.21707 1.11111,-3.64691 -4.10183,-4.13793 -10.84978,-7.02606 -15.79359,-10.11852 -1.5708,-0.98258 -5.89758,-4.45121 -7.63654,-2.13184 -0.98315,1.31129 -0.009,3.41524 0.47802,4.72395 1.51067,4.06145 3.20932,8.05359 4.59852,12.16 m 464.62766,-8.47309 c -2.26305,0.58204 -4.42758,2.4034 -6.38766,3.62418 -4.08758,2.54582 -8.20781,5.06903 -12.15016,7.83805 -1.28289,0.90109 -5.21015,4.62191 -1.24242,4.98371 2.22852,0.2032 4.6125,-1.81996 6.35258,-2.96101 4.70102,-3.08262 11.27805,-5.75926 15.15359,-9.82961 1.71953,-1.80598 1.06539,-4.37321 -1.72593,-3.65532 m 6.41234,25.11309 c -2.41078,5.78922 -5.94492,11.06301 -8.79406,16.64 -0.75922,1.48609 -2.62555,4.33906 -1.40055,6.00395 1.41172,1.91863 4.87453,-0.31024 6.35461,-1.04247 l 12.8,-6.39949 c 1.83586,-0.91793 4.6768,-1.78262 5.97633,-3.44691 1.07133,-1.37211 0.11515,-2.92196 -1.53438,-2.98176 -1.74203,-0.0632 -3.5839,1.20227 -5.08195,1.94867 l -4.48,2.23602 c -2.54125,1.27062 -5.05711,2.58996 -7.68,3.68199 3.29414,-5.38223 6.24859,-11.02473 9.12492,-16.64 0.84258,-1.64488 3.16,-4.7757 1.72547,-6.64395 -1.46422,-1.90691 -4.8707,0.29563 -6.37039,1.07457 -4.23836,2.20149 -8.5275,4.32778 -12.8,6.46418 -1.8375,0.91879 -4.59492,1.65344 -5.88734,3.35012 -3.08,4.0434 4.44562,2.37129 5.88734,1.67063 l 4.48,-2.23356 c 2.54164,-1.27082 5.0568,-2.58984 7.68,-3.68199 m -497.92,3.2 c -1.10012,4.14289 1.78324,5.02344 5.12,6.54766 4.46971,2.04175 12.62656,3.97808 14.02965,9.45234 0.86476,3.37391 -2.48444,6.63094 -5.70965,6.77777 -4.7268,0.21524 -10.476,-3.97386 -14.72,-5.76691 -1.38113,-0.58352 -5.04857,-2.60688 -5.83012,-0.17481 -1.04412,3.24915 5.7251,4.95715 7.75012,5.83555 5.11285,2.21777 10.85504,5.61317 16.63951,3.79063 7.61098,-2.39801 8.31901,-13.09625 2.50074,-17.63754 -2.44722,-1.91012 -5.44986,-3.01278 -8.26025,-4.25531 -3.80414,-1.68192 -7.51584,-3.4084 -11.52,-4.56938 m 254.08,19.84 h 0.64 l 34.1916,43.52 8.05086,10.23949 5.11805,4.28149 5.11949,-2.36344 9.6,-5.75754 c 6.84375,10.34609 15.70254,19.89027 23.62812,29.44 2.01461,2.42746 8.42149,7.99625 7.80743,11.41086 -0.28739,1.59812 -2.1091,2.74812 -3.27852,3.67754 -2.67547,2.12644 -8.48805,8.30008 -12.15703,6.95113 -4.01969,-1.47789 -8.01207,-5.32445 -11.52,-7.7709 -1.65086,-1.15133 -3.56895,-2.77156 -5.7348,-2.40148 -2.4129,0.4123 -4.20086,3.14066 -5.79411,4.77336 -4.45125,4.56156 -8.88336,9.26847 -13.06269,14.07949 -15.07703,17.3559 -31.55774,33.50859 -46.97977,50.56 -5.82742,6.44309 -11.9648,12.64371 -17.66023,19.2 -1.60887,1.85207 -4.60586,6.26766 -7.35113,6.26766 -1.64661,0 -2.90532,-1.96891 -3.8459,-3.07063 l -8.19805,-9.59703 c -10.93949,-12.78125 -22.19527,-25.3509 -32.81332,-38.4 v -0.64 l 33.79406,-41.6 14.84594,-18.56 c 3.30164,1.60895 5.24676,4.82547 7.45633,7.68 3.16113,4.08387 6.43836,8.07609 9.6,12.16 1.56101,2.01641 4.14625,6.61477 7.25183,5.91902 2.47989,-0.55558 3.29938,-3.19632 2.28247,-5.27902 -2.01754,-4.13207 -5.93989,-7.9327 -8.79805,-11.52 l -8.5768,-10.88 c -1.33687,-1.67551 -3.25851,-3.53805 -3.55898,-5.76 -0.27543,-2.03664 0.8041,-4.48355 1.39953,-6.4 l 3.70121,-12.16 c 3.57527,-11.48332 6.62707,-23.12883 10.36246,-34.56 1.41324,-4.32488 2.10777,-9.55715 4.48,-13.44 m -10.24,6.4 -11.69926,39.04 -6.48492,20.48 -17.78176,22.4 -33.15406,40.32 h -0.64 c -2.65238,-3.25742 -5.46031,-6.38297 -8.16246,-9.6 -1.43039,-1.70297 -3.01156,-4.04301 -5.27805,-4.66715 -3.89597,-1.07289 -9.91054,3.35457 -13.43949,4.74371 -2.33098,0.91758 -5.27812,0.85992 -6.23605,-2.00941 -0.97055,-2.90723 3.21691,-5.92231 4.95605,-7.66715 6.39383,-6.41488 12.32746,-13.2957 18.5852,-19.84 16.23031,-16.97355 32.75152,-33.78828 48.50617,-51.2 6.49215,-7.17496 13.16582,-14.18219 19.92297,-21.11062 3.598,-3.68922 6.66328,-7.90098 10.90566,-10.88938 m 268.16,24.32 c -1.92672,0.25816 -4.41773,1.23934 -6.28891,0.4143 -6.21109,-2.73868 -5.20578,-11.61477 -1.1807,-15.55653 5.63453,-5.51793 14.37336,-2.83179 17.07305,4.26223 1.06164,2.78973 0.037,4.90746 -0.16836,7.66766 -0.11203,1.50679 0.8207,3.24718 2.59109,2.45976 2.19352,-0.97562 2.56039,-4.86316 2.61133,-6.92742 0.1693,-6.8582 -4.81,-12.95027 -11.4375,-14.38812 -5.07508,-1.10106 -10.95023,0.30656 -14.50914,4.21527 -5.6093,6.16066 -5.17773,17.7584 2.35852,22.32644 3.0096,1.8243 11.71078,0.57266 12.98468,-3.27902 0.71867,-2.17285 -1.41703,-9.77441 -4.02468,-10.20492 -3.72008,-0.61418 -0.44352,7.67566 -0.009,9.01035 M 208.20944,301.57257 c -5.72729,3.18414 -3.54479,13.00168 2.37035,14.41921 5.52893,1.32497 8.00775,-3.55265 11.62619,-6.50714 1.78344,-1.45621 3.73285,-1.74578 5.50467,-0.0884 2.79805,2.61734 1.45074,5.62055 -1.13332,7.70867 -0.93102,0.75234 -2.73283,1.50336 -2.53629,2.98762 0.31674,2.39187 3.67635,1.71492 5.08641,0.99703 6.57318,-3.3466 5.95168,-15.01981 -1.27061,-17.20692 -7.42213,-2.24761 -9.34627,7.09071 -15.33137,7.69829 -5.37168,0.54531 -1.48787,-6.19516 -1.13677,-8.08098 0.37191,-1.99762 -1.5852,-2.81363 -3.17926,-1.92738 m 390.20789,62.04984 -13.88297,22.4 -7.01926,12.8 -0.91504,14.72 -1.85335,24.96 -1.88891,21.12 -6.51652,8.96 -15.01235,19.2 -42.5116,54.4 c -6.00773,-4.4218 -10.6877,-11.61859 -15.53332,-17.28 -9.13555,-10.67359 -18.26418,-21.35418 -27.43012,-32 -3.28863,-3.81961 -6.52988,-7.67648 -9.79015,-11.52 -1.16453,-1.37281 -3.37461,-3.14594 -3.34516,-5.12 0.0401,-2.68844 3.82352,-5.25941 5.48148,-7.04 4.94465,-5.31031 9.71336,-10.7923 14.76836,-16 14.52516,-14.96391 28.91094,-30.4393 42.70618,-46.08 4.80773,-5.4509 9.83988,-10.71977 14.84496,-15.99063 2.14925,-2.26339 4.31261,-5.75433 7.10715,-7.23406 2.37203,-1.25601 4.52218,0.80614 6.39062,2.08938 3.38766,2.32664 9.62879,8.81191 14.08,7.08343 3.5007,-1.35937 6.65348,-4.72398 9.6,-6.99207 6.57363,-5.06003 13.21297,-10.04394 19.84,-15.03554 3.48844,-2.62754 6.76895,-5.8591 10.88,-7.44051 m 55.04,16.64 c 5.64031,8.52805 12.73883,16.285 19.06516,24.32 2.65531,3.3725 6.90859,7.33023 8.12593,11.52 1.56414,5.38352 -1.62882,13.90551 -2.95211,19.2 -2.33507,9.34289 -4.94406,18.56391 -8.5264,27.52 -2.61633,6.54086 -5.97305,12.71586 -8.67258,19.2 h -1.28 l -16.03211,-41.6 -6.24,-17.28 2.94617,-17.92 2.41434,-12.16 1.74566,-6.79754 9.40594,-6.00246 m -317.44,4.48 20.58617,20.23359 8.21434,6.34961 16.63949,-6.1032 11.23949,13.44 25.06719,29.44 74.68293,87.04 29.54816,34.56 12.42223,16 c -15.22648,3.4907 -30.40426,6.96828 -46.08,7.65484 -54.25625,2.37602 -107.00664,-15.76851 -147.84,-51.71562 -11.66227,-10.26672 -22.20441,-21.95551 -31.17186,-34.65922 -2.68914,-3.80953 -7.89607,-9.3702 -8.59654,-14.08 -0.30494,-2.05027 0.98067,-4.00305 1.84988,-5.76 2.00754,-4.05789 4.09932,-8.08027 6.06075,-12.16 7.6672,-15.94773 15.01021,-32.87129 24.17777,-48 h 0.64 c 0,9.65379 0.83367,19.18246 1.2548,28.8 0.2454,5.60437 -0.77785,11.2768 2.89137,16.00051 9.14828,11.77738 19.68793,22.60828 29.40543,33.91949 1.74668,2.03316 3.72762,5.06523 6.18567,6.27309 2.02996,0.9975 4.50183,-0.0774 4.76691,-2.44543 0.45766,-4.08805 -6.07621,-9.33051 -8.49086,-12.14766 -5.87492,-6.85426 -11.82965,-13.64242 -17.72543,-20.48 -2.69641,-3.12711 -6.12293,-6.07844 -8.30418,-9.6 -1.50777,-2.43426 -0.99363,-5.58445 -1.02617,-8.32 -0.0556,-4.67898 -0.5318,-9.38039 -0.64692,-14.08 -0.2982,-12.17395 -0.44406,-25.08195 -2.39308,-37.12 -0.83074,-5.13113 -1.81684,-10.23227 -2.66617,-15.36 -0.41024,-2.47684 -1.27727,-5.23125 -0.69137,-7.68 z"
       id="path1" />
  </g>
</svg>
