<?xml version="1.0" encoding="UTF-8" standalone="no"?>
<!-- Created with Inkscape (http://www.inkscape.org/) -->

<svg
   version="1.1"
   id="svg1"
   width="800"
   height="710"
   viewBox="0 0 800 710"
   sodipodi:docname="Logo_large.svg"
   inkscape:version="1.3 (0e150ed6c4, 2023-07-21)"
   xmlns:inkscape="http://www.inkscape.org/namespaces/inkscape"
   xmlns:sodipodi="http://sodipodi.sourceforge.net/DTD/sodipodi-0.dtd"
   xmlns="http://www.w3.org/2000/svg"
   xmlns:svg="http://www.w3.org/2000/svg">
  <defs
     id="defs1" />
  <sodipodi:namedview
     id="namedview1"
     pagecolor="#ffffff"
     bordercolor="#000000"
     borderopacity="0.25"
     inkscape:showpageshadow="2"
     inkscape:pageopacity="0.0"
     inkscape:pagecheckerboard="0"
     inkscape:deskcolor="#d1d1d1"
     inkscape:zoom="0.85104167"
     inkscape:cx="448.27417"
     inkscape:cy="488.22521"
     inkscape:window-width="1920"
     inkscape:window-height="1094"
     inkscape:window-x="-11"
     inkscape:window-y="-11"
     inkscape:window-maximized="1"
     inkscape:current-layer="g1"
     inkscape:clip-to-page="true" />
  <g
     inkscape:groupmode="layer"
     inkscape:label="Image"
     id="g1">
    <path
       style="fill:#809782;fill-opacity:1;stroke:none;stroke-width:1.35247"
       d="m 358.59369,41.284275 -0.87781,-11.09564 c 3.37012,-0.41414 11.99879,0.18474 13.92531,-2.98269 1.19897,-1.97125 -0.75144,-3.46604 -2.60906,-3.64253 -3.66234,-0.34788 -8.69682,0.49865 -12.19409,1.50416 l -0.87783,-11.94915 c 4.52062,-0.18878 9.61725,-0.4155 14.0283,-1.39487 1.6726,-0.37133 4.49382,-1.24141 3.74634,-3.50489 -0.68183,-2.0647 -3.72978,-1.93383 -5.48577,-1.89082 -3.84032,0.094 -16.00333,-0.18127 -17.90328,3.64724 -1.20861,2.4355 -0.0608,5.73732 0.19911,8.26442 0.70064,6.81296 1.43434,13.65585 1.92571,20.48424 0.18147,2.52197 0.2666,6.71504 2.98908,8.01947 4.07189,1.95103 13.67675,-0.40851 18.04012,-1.20784 1.58827,-0.2909 4.51905,-0.97187 3.74634,-3.21912 -0.61373,-1.78484 -3.04142,-1.80869 -4.61132,-1.86841 -4.69394,-0.17857 -9.33607,0.82383 -14.04115,0.83643 m 85.14914,-31.98163 c -12.3366,2.76797 -18.46793,16.75306 -13.24122,27.71345 3.74197,7.84695 15.68766,14.3461 24.52295,10.23484 1.79047,-0.83319 3.61218,-3.40404 1.35193,-4.88654 -2.33677,-1.53261 -6.42827,0.38269 -9.12234,-0.031 -8.58838,-1.31861 -15.792,-10.81913 -11.787,-18.9729 2.53252,-5.15597 9.17232,-9.97499 15.2983,-8.90258 2.70473,0.47354 6.54007,3.37998 9.25849,1.83215 3.25599,-1.85393 -0.24422,-4.88413 -2.25351,-5.78099 -4.19185,-1.87112 -9.54867,-2.2114 -14.0276,-1.2065 m -116.75087,30.27463 c -6.36886,-5.70377 -12.85295,-11.3165 -19.31219,-16.92528 -1.86007,-1.61512 -5.6263,-5.60376 -8.48631,-4.26296 -2.95769,1.38654 -0.95063,6.19659 -0.40575,8.38559 1.55287,6.23849 2.83258,12.53875 4.38913,18.77723 0.65199,2.61315 0.85029,5.96103 2.37069,8.26317 1.16473,1.76361 3.93628,2.36488 4.84294,0 0.83538,-2.1791 -0.33154,-5.26442 -0.85346,-7.40966 -0.55415,-2.27766 -1.1642,-4.5399 -1.67297,-6.82809 -0.82967,-3.7315 -1.75304,-7.42038 -2.81774,-11.09563 6.26624,5.83111 12.90421,11.31006 19.31218,16.99644 1.86827,1.65796 5.57155,5.58804 8.48631,4.19452 2.87019,-1.37226 1.11635,-6.18451 0.59809,-8.3883 -1.40708,-5.98333 -2.9609,-11.92884 -4.32275,-17.92372 -0.65595,-2.88768 -0.91441,-6.59116 -2.62667,-9.11334 -1.39759,-2.05868 -3.82468,-1.70412 -4.47721,0.70535 -0.58406,2.15669 0.20574,4.60179 0.69159,6.70097 l 1.54906,6.82808 c 0.90166,3.699 1.75559,7.41632 2.73506,11.09563 m 165.03131,-20.88599 c -24.45948,5.49717 -16.43093,43.89484 8.77827,38.22886 24.46538,-5.49874 16.47327,-43.9041 -8.77827,-38.22886 m 3.51132,4.9604 c 18.2675,-1.78297 19.46315,26.6151 1.75565,28.37067 -18.16008,1.80049 -19.42159,-26.64646 -1.75565,-28.37067 m -224.20938,3.23942 c -2.65636,1.70608 -0.44619,6.30777 0.32035,8.41862 l 7.94716,22.19065 c 0.66426,1.84726 2.55503,7.18575 5.61237,5.04792 2.2753,-1.59105 0.30283,-5.67419 -0.34949,-7.60782 -2.49857,-7.40633 -4.86534,-14.9106 -7.73107,-22.19065 -0.72502,-1.84184 -2.55161,-7.94468 -5.79932,-5.85872 m 271.61199,18.66075 h 0.87783 c 0.37365,4.59647 1.35333,9.13783 2.28265,13.65617 l 1.93106,9.38861 c 0.51671,2.51229 0.79814,9.69952 4.58962,9.69952 3.22139,0 4.49292,-4.89883 5.48846,-7.13898 3.34044,-7.51656 8.90331,-15.85299 10.55421,-23.89434 0.4919,-2.39602 -1.28026,-5.76296 -4.0464,-3.58783 -1.74193,1.36977 -2.5449,4.22963 -3.44561,6.14441 -0.92974,1.97655 -1.79198,3.97925 -2.67752,5.97456 -1.49795,3.37508 -3.1032,6.70713 -4.14256,10.24213 -3.60539,-7.16138 -4.19309,-16.1175 -5.79396,-23.89829 -0.48815,-2.37247 -0.62247,-7.18347 -3.24641,-8.38497 -3.39032,-1.5525 -5.29214,3.70348 -6.25451,5.82443 -2.44848,5.39634 -4.76091,10.87705 -7.33557,16.2167 -1.38761,2.8779 -3.56788,6.15326 -3.91705,9.37216 -0.26982,2.48719 1.81051,4.60898 4.2388,2.86549 1.69934,-1.22015 2.43245,-3.61002 3.24239,-5.40956 1.02415,-2.27547 2.00265,-4.56846 3.06291,-6.82809 1.58934,-3.38726 3.13872,-6.79869 4.59166,-10.24212 m -295.82743,26.45882 c -1.30378,-4.43436 -3.38111,-8.67283 -5.48438,-12.80265 -1.29188,-2.53657 -2.51796,-5.07918 -3.66368,-7.6816 -1.08421,-2.4628 -2.07022,-6.30995 -4.38238,-7.97009 -1.95313,-1.40237 -4.16142,-0.24535 -4.29225,2.04626 -0.1743,3.05345 2.22772,6.69462 3.56343,9.33788 3.32013,6.57042 5.56512,16.43091 10.71816,21.80859 3.58976,3.74619 10.42296,-0.99772 14.07095,-2.68233 1.78796,-0.8257 4.04858,-1.73963 4.6113,-3.80527 0.66557,-2.44311 -1.78715,-3.15577 -3.74634,-2.78047 -3.89214,0.74556 -7.73601,3.07022 -11.39481,4.52968 m 347.61917,-12.3567 c -1.54182,0.25913 -3.04024,0.82654 -4.29702,1.74246 -5.51593,4.02 -5.04103,10.68357 -1.52806,15.73535 2.15267,3.09564 5.78501,7.16045 2.72901,10.89997 -5.47859,6.703905 -10.13476,-1.62596 -12.31808,-5.63929 -0.72892,-1.33998 -2.04261,-2.32507 -3.63592,-1.56743 -3.11772,1.48252 -1.56201,6.04669 -0.40301,8.2434 2.79699,5.301195 8.27317,7.465495 14.18613,6.679185 1.90737,-0.25358 3.67401,-0.85611 5.22836,-1.98426 5.99779,-4.353295 4.65415,-11.076575 1.38715,-16.631575 -1.52777,-2.59773 -4.75848,-6.07001 -3.04119,-9.2615 4.04799,-7.52291 9.45757,4.75932 13.46265,2.18774 2.2984,-1.47572 0.54982,-4.93082 -0.73895,-6.42101 -2.57229,-2.97438 -7.08026,-4.64702 -11.03107,-3.98304 m -417.0196,13.18462 c -4.95335,0.30872 -12.06224,7.10502 -15.65254,10.17233 -1.4001,1.19618 -3.96932,3.61106 -2.10448,5.51155 2.08187,2.121705 5.15577,-0.78213 7.26242,-1.25859 2.4622,-0.55689 3.91582,1.00166 5.37801,2.70015 4.426,5.141185 8.17332,10.840275 12.3275,16.183145 1.30753,1.68166 3.30032,4.71306 5.87792,4.33866 3.76735,-0.54719 1.00549,-5.31188 -0.0636,-6.89523 -3.16908,-4.69316 -6.84726,-9.18471 -10.33953,-13.656165 -1.49968,-1.9201 -3.99361,-4.3282 -4.36949,-6.81559 -0.47093,-3.11637 3.20397,-4.34924 4.21505,-6.89986 0.73814,-1.86216 -0.47336,-3.50865 -2.5312,-3.3804 m 453.87068,9.46562 c -3.64032,0.53906 -6.66616,5.93842 -8.76064,8.483745 -3.60876,4.3856 -8.33266,8.9803 -9.97376,14.50967 -2.66349,8.974 4.44009,18.47889 14.36289,17.73139 9.47736,-0.71396 15.6051,-11.25015 20.89166,-17.73139 1.2009,-1.47233 6.84141,-7.69149 2.52654,-8.99479 -3.08331,-0.93134 -6.17597,3.68109 -7.71892,5.58138 -4.12917,5.08548 -11.74606,18.2965 -20.04985,14.1159 -11.99144,-6.03725 4.31484,-20.42232 8.72341,-26.065675 1.19186,-1.52574 5.38671,-8.42812 -10e-4,-7.63023 M 192.68475,375.00685 c 0.74639,9.11814 3.19493,18.28353 4.75218,27.31233 0.64336,3.7301 2.22982,8.16878 1.77804,11.94915 -0.74441,6.22941 -6.08713,13.21603 -8.94697,18.77723 l -20.62348,40.11499 -19.31219,37.55446 c -2.24098,4.35783 -6.85343,10.26718 -5.3008,15.36319 1.91003,6.26911 7.33874,12.57125 11.08659,17.92372 10.26433,14.65892 21.92032,28.43485 34.81098,40.96849 55.57677,54.03725 130.56373,83.64402 208.92262,83.64402 23.06513,0 46.02149,-2.49125 68.47045,-7.79224 5.3004,-1.25161 10.59397,-2.5945 15.80087,-4.17857 2.15915,-0.65691 4.93076,-1.25537 6.49294,-2.97417 4.66329,-5.13085 -3.80036,-12.24504 -6.8533,-15.78139 -8.65487,-10.02552 -17.45854,-19.92872 -26.21215,-29.87287 -2.34572,-2.6647 -8.10066,-7.12763 -6.76732,-11.09563 1.22782,-3.65399 5.28733,-7.25224 7.69862,-10.24213 5.24991,-6.50968 10.38379,-13.10553 15.6126,-19.63073 15.48903,-19.32943 31.27368,-38.46611 46.43605,-58.03871 6.07353,-7.84013 14.0486,-15.29865 18.92203,-23.8983 3.68473,-6.50213 2.05392,-15.87126 2.75606,-23.04477 1.41699,-14.4767 2.26212,-29.024 3.28375,-43.52904 0.41347,-5.87048 -0.15113,-12.16392 1.32415,-17.92371 1.59899,-6.24291 7.5032,-12.50286 10.99993,-17.92372 9.06186,-14.04818 20.505,-28.29494 27.25666,-43.52903 h 1.75565 c 5.05388,10.34136 14.0039,19.76155 20.93506,29.01934 2.62094,3.50069 6.99823,7.69755 8.12258,11.94915 1.12792,4.26516 -1.3266,10.28459 -2.19586,14.50968 -1.6373,7.95802 -3.16289,15.9318 -4.74339,23.89829 -0.82307,4.14862 -2.24853,8.54818 -2.14447,12.80266 0.14525,5.93857 3.97728,12.46556 6.18271,17.92372 4.57763,11.32886 9.00394,22.74002 13.38959,34.14042 4.61797,12.00421 9.44375,24.06957 14.63307,35.84743 1.74494,3.96052 4.66978,10.9925 10.44724,7.52812 3.06306,-1.83672 4.76159,-6.30879 6.47675,-9.23513 5.2048,-8.88039 9.27642,-18.67768 13.16804,-28.16585 16.63443,-40.55638 23.72615,-85.48555 19.46122,-128.88007 C 686.54954,319.68079 675.18667,280.40086 654.54232,244.41976 598.81964,147.3004 485.37754,89.800905 371.76109,100.32143 249.37564,111.65399 144.56208,198.11712 114.66912,314.40761 c -8.4651,32.93121 -10.16539,66.20369 -7.13371,99.86072 0.72366,8.03386 2.18974,15.95743 3.58243,23.89829 0.56181,3.20348 0.92317,7.51151 4.41351,9.03693 2.9223,1.27715 5.65732,-0.50032 7.80155,-2.32345 4.76731,-4.05344 8.68455,-9.17795 13.17077,-13.54156 19.0161,-18.49649 37.15184,-37.82979 56.18088,-56.33169 M 138.05001,103.6643 c -2.80224,1.95749 1.1838,6.06949 2.48719,7.60784 5.01369,5.91738 10.62902,11.45117 16.00744,17.05703 1.56467,1.63086 4.70493,5.81244 7.50693,4.03505 2.85079,-1.8083 -0.86657,-5.97509 -2.18307,-7.43592 -5.45285,-6.05068 -11.05172,-12.06412 -16.73559,-17.90726 -1.42071,-1.4605 -4.67722,-5.03719 -7.0829,-3.35674 m 541.82807,302.92244 h -0.87782 c -7.9627,-10.44556 -16.42141,-20.55869 -24.75391,-30.72638 -3.14708,-3.84017 -6.61896,-10.45632 -11.31552,-12.6123 -7.77866,-3.57079 -15.16918,12.657 -22.08726,4.86747 -9.09935,-10.24556 -16.58294,-22.25071 -24.7315,-33.22366 -2.3342,-3.14331 -6.32101,-10.62043 -11.03992,-10.22437 -4.05694,0.34049 -8.36264,4.99594 -11.41104,7.30162 -8.14116,6.15757 -16.446,12.10673 -24.57913,18.27405 -2.81634,2.13565 -9.21858,8.519 -13.08884,7.41097 -4.28744,-1.2275 -8.27034,-8.44638 -10.985,-11.66665 -9.33054,-11.06838 -18.69812,-22.11166 -27.89332,-33.28689 -3.04013,-3.69474 -8.55714,-13.53088 -13.90436,-13.90179 -2.62717,-0.18223 -5.02323,1.93884 -6.98806,3.34424 -3.97737,2.8449 -7.72254,6.11974 -12.28956,7.99701 -15.948,-20.91803 -33.13049,-41.11848 -49.86068,-61.45275 -3.95697,-4.80938 -7.78803,-9.71327 -11.76257,-14.509 -1.77612,-2.14305 -3.86465,-5.3971 -6.85667,-6.00026 -4.36465,-0.87986 -8.7908,5.98068 -11.39958,8.56011 -9.57658,9.46895 -18.4388,19.61673 -28.09313,29.01936 -28.04445,27.31332 -54.66325,56.26006 -81.71638,84.49753 -9.32631,9.73457 -18.97929,19.15315 -28.16088,29.01936 -4.0143,4.31365 -8.68676,8.0354 -12.14057,12.80265 l -10.53392,-8.5351 -15.80087,-15.3632 -11.41174,-8.99082 -6.94063,3.85263 -13.25004,13.6733 -31.52249,31.57989 -23.77989,23.04478 c -2.41596,-9.75353 -2.88824,-19.92039 -3.58988,-29.87286 -2.37325,-33.66401 1.82551,-67.58804 12.20017,-99.86073 12.64725,-39.34217 34.54306,-75.66282 63.45,-105.83528 72.6122,-75.79114 188.13369,-104.89322 289.6041,-74.23363 96.31109,29.10063 171.13721,108.04345 192.42824,203.96721 4.33417,19.52664 6.1703,38.9783 6.02552,58.89222 -0.0517,7.1171 1.14486,15.32396 -0.94287,22.19127 M 650.03199,141.145 c 3.45676,-3.35403 6.95618,-6.63627 10.61247,-9.78443 3.77608,-3.25134 8.05002,-6.73364 11.05008,-10.69914 1.22105,-1.61404 2.68685,-5.26912 -0.7126,-5.46681 -3.14022,-0.18264 -5.97921,3.3372 -8.04605,5.18362 -5.85001,5.22613 -13.34121,10.89362 -17.75156,17.35272 -3.26001,4.77438 2.80568,9.49426 5.97612,12.76514 1.41438,1.45917 3.44263,3.67869 5.76074,3.41994 2.2325,-0.24923 2.3748,-2.63852 1.68044,-4.23989 -1.53545,-3.54116 -5.44656,-6.39191 -8.56964,-8.53115 m -529.32919,5.12107 c -5.75822,-0.0464 -11.84371,-0.5147 -17.55652,-1.21504 -2.01912,-0.24757 -5.544836,-1.0395 -6.946746,0.99509 -2.03091,2.94748 3.33937,6.81809 5.191766,8.39283 6.32745,5.37904 12.76088,12.86762 20.18526,16.77385 1.92099,1.01067 5.37826,1.0933 4.6113,-1.99547 -0.5756,-2.31813 -2.91437,-4.23831 -4.6113,-5.80469 -1.6909,-1.5608 -3.51378,-2.97905 -5.26289,-4.4763 -3.11174,-2.66367 -6.31983,-5.15508 -8.77826,-8.40272 l 13.16672,1.55819 5.23988,-1.21968 0.36508,-5.45957 -2.97081,-12.80266 c 3.05097,2.25828 5.8749,4.75557 8.77826,7.18961 l 5.26695,4.51584 c 1.28074,1.06605 10.57563,8.11746 9.72518,1.90065 -0.40235,-2.94124 -4.14246,-5.11752 -6.21386,-6.91961 -5.2349,-4.55433 -10.49682,-9.07413 -15.80088,-13.55344 -1.64877,-1.39236 -5.59638,-5.35195 -7.87607,-2.82261 -2.7092,3.00593 0.5096,10.60095 1.20431,13.95711 0.65638,3.17081 1.21597,6.32601 2.28263,9.38862 m 574.37801,-4.90242 c -3.92054,1.74703 2.5276,8.16371 -0.4612,11.58234 -4.8856,5.58808 -12.45588,9.67111 -18.2359,14.37204 -1.55687,1.26621 -5.2901,4.31851 -2.94713,6.50667 2.11699,1.97707 5.65423,-0.94822 7.31933,-2.15815 5.98972,-4.35243 11.73793,-10.80032 18.43092,-14.05261 4.43393,-2.15457 7.21099,5.58631 10.86996,3.08804 2.09543,-1.43071 0.1872,-4.45217 -0.80132,-5.90081 -2.59693,-3.80563 -5.83413,-7.64268 -9.01529,-11.00213 -1.21151,-1.27938 -3.1234,-3.34267 -5.15937,-2.43539 M 85.589754,191.50211 c -3.54166,0.0711 -6.99794,0.74084 -10.53391,0.84163 -2.78127,0.0794 -12.38213,-0.48045 -13.3855,2.83122 -0.90318,2.98093 3.45841,5.25395 5.48573,6.52317 5.22396,3.27053 10.56417,6.36654 15.8002,9.61976 2.67239,1.6604 5.59076,4.17706 8.76133,4.83527 2.21591,0.46005 4.34949,-0.8559 3.3738,-3.25073 -0.96267,-2.36277 -3.91247,-3.75384 -5.99035,-5.019 l -6.14478,-3.74265 -9.65609,-5.81058 13.16672,-1.35799 5.20802,-1.83543 -0.25601,-5.34237 -4.95134,-12.80197 c 3.08825,2.29115 6.37139,4.23363 9.65609,6.24656 l 6.144786,3.7229 c 2.07661,1.26194 4.43682,3.03578 6.97115,3.22437 3.48888,0.25958 3.46807,-2.95671 1.524,-4.86356 -5.62609,-5.51838 -14.881596,-9.37002 -21.662546,-13.49416 -2.15451,-1.31037 -8.08913,-5.93618 -10.47429,-2.84304 -1.3485,1.74875 -0.0124,4.5546 0.65565,6.2999 2.07203,5.4164 4.40191,10.74035 6.30734,16.2167 M 722.87464,180.20232 c -3.104,0.77621 -6.07288,3.20519 -8.76133,4.83323 -5.60654,3.39514 -11.25787,6.76012 -16.66521,10.45291 -1.75962,1.2017 -7.14626,6.16383 -1.7041,6.64633 3.05665,0.27099 6.32652,-2.42712 8.71321,-3.94884 6.44795,-4.11101 15.46902,-7.6806 20.78472,-13.10886 2.35852,-2.40848 1.4613,-5.83216 -2.36729,-4.87477 m 8.79519,33.49106 c -3.30663,7.72057 -8.15408,14.75375 -12.06197,22.19127 -1.04134,1.98187 -3.60121,5.78662 -1.92099,8.00693 1.93632,2.55871 6.68592,-0.41373 8.716,-1.39024 l 17.55652,-8.53443 c 2.51807,-1.22416 6.41472,-2.37732 8.19716,-4.59684 1.46944,-1.82985 0.15794,-3.89675 -2.10456,-3.97649 -2.38938,-0.0843 -4.91569,1.60336 -6.97042,2.59876 l -6.14479,2.98198 c -3.48558,1.69451 -6.93635,3.45399 -10.53391,4.91033 4.51826,-7.17779 8.57059,-14.70269 12.51578,-22.19127 1.15567,-2.19362 4.33426,-6.36891 2.36665,-8.86043 -2.00833,-2.54307 -6.68066,0.39426 -8.73765,1.43305 -5.81334,2.93594 -11.69634,5.77157 -17.55652,8.6207 -2.52032,1.22531 -6.30241,2.20504 -8.0751,4.46776 -4.22453,5.39232 6.09763,3.16237 8.0751,2.22796 l 6.14479,-2.97869 c 3.48612,-1.69478 6.93592,-3.45384 10.53391,-4.91035 m -682.948776,4.26756 c -1.50893,5.525 2.4459,6.69931 7.02262,8.73203 6.13066,2.72289 17.31863,5.3052 19.24311,12.60573 1.1861,4.49948 -3.40767,8.84308 -7.83138,9.0389 -6.48329,0.28704 -14.36891,-5.29958 -20.19,-7.69081 -1.89436,-0.77819 -6.92463,-3.47656 -7.99661,-0.23313 -1.43212,4.3331 7.85256,6.6109 10.63008,7.78235 7.01281,2.95764 14.88882,7.48578 22.82282,5.05522 10.43925,-3.19801 11.41037,-17.46528 3.43002,-23.52159 -3.35661,-2.54736 -7.47505,-4.01788 -11.32979,-5.67493 -5.21777,-2.24302 -10.30875,-4.54548 -15.80087,-6.09377 m 348.496996,26.45882 h 0.87782 l 46.89733,58.0387 11.04258,13.65549 7.01993,5.70984 7.02191,-3.1519 13.16739,-7.67832 c 9.38692,13.79765 21.53766,26.52586 32.40842,39.26148 2.76324,3.23729 11.55094,10.66388 10.70869,15.21764 -0.39418,2.13127 -2.89285,3.66492 -4.49682,4.9044 -3.66968,2.83584 -11.64224,11.06908 -16.67463,9.2701 -5.51342,-1.97094 -10.98938,-7.10075 -15.80088,-10.36335 -2.26431,-1.53542 -4.89518,-3.69618 -7.86586,-3.20264 -3.30954,0.54984 -5.76192,4.18842 -7.94723,6.36581 -6.10535,6.08333 -12.18444,12.36051 -17.91682,18.77654 -20.67971,23.146 -43.28471,44.68739 -64.43762,67.42732 -7.9929,8.59258 -16.41095,16.86178 -24.22282,25.60532 -2.20675,2.46993 -6.31742,8.35861 -10.08285,8.35861 -2.25848,0 -3.98494,-2.62576 -5.27504,-4.09503 l -11.24448,-12.79869 c -15.00464,-17.0452 -30.44311,-33.80821 -45.00686,-51.21063 v -0.85351 l 46.35205,-55.47818 20.36275,-24.75179 c 4.52854,2.14571 7.19647,6.43529 10.22712,10.24212 4.33582,5.44629 8.83088,10.77035 13.16739,16.2167 2.14108,2.6891 5.68701,8.82152 9.94664,7.89367 3.40142,-0.74094 4.52544,-4.26265 3.13064,-7.04016 -2.76726,-5.51057 -8.14718,-10.57912 -12.06744,-15.36318 L 374.7454,340.86643 c -1.83366,-2.23447 -4.46939,-4.71837 -4.88152,-7.68159 -0.37777,-2.71608 1.10292,-5.9793 1.9196,-8.53511 l 5.0766,-16.21669 c 4.90385,-15.31427 9.08971,-30.84484 14.21318,-46.08956 1.93841,-5.7677 2.89103,-12.74551 6.14479,-17.92372 m -14.04522,8.5351 -16.04674,52.06414 -8.89475,27.31233 -24.38951,29.87287 -45.47423,53.77115 h -0.87782 c -3.63802,-4.34412 -7.48939,-8.51239 -11.19566,-12.80266 -1.96193,-2.27109 -4.13067,-5.3918 -7.23939,-6.22415 -5.34373,-1.43082 -13.59333,4.47369 -18.43365,6.32626 -3.19718,1.22369 -7.2395,1.14679 -8.55339,-2.67978 -1.33122,-3.87711 4.41232,-7.89805 6.79773,-10.22497 8.7698,-8.55496 16.90839,-17.73129 25.49152,-26.45884 22.26156,-22.63609 44.9221,-45.06038 66.53124,-68.28082 8.90466,-9.5686 18.05828,-18.91352 27.3264,-28.15334 4.93504,-4.91998 9.13938,-10.53682 14.95825,-14.52219 m 367.80917,32.4334 c -2.64269,0.34428 -6.05937,1.65279 -8.62589,0.55252 -8.51915,-3.65234 -7.14026,-15.48958 -1.61945,-20.74636 7.72835,-7.35876 19.71455,-3.77649 23.41746,5.68416 1.45614,3.72041 0.0508,6.54464 -0.23093,10.22567 -0.15365,2.00947 1.12568,4.33047 3.55395,3.28036 3.00864,-1.3011 3.51184,-6.48556 3.58171,-9.23848 0.23221,-9.14616 -6.59742,-17.27061 -15.68771,-19.18814 -6.961,-1.46838 -15.01937,0.40884 -19.9008,5.62154 -7.69372,8.21591 -7.10178,23.68277 3.23497,29.77475 4.12797,2.43291 16.06254,0.76371 17.80983,-4.37293 0.98572,-2.89774 -1.94361,-13.03525 -5.52027,-13.60939 -5.10248,-0.81907 -0.60833,10.23634 -0.0124,12.0163 M 29.672374,269.21178 c -7.85556,4.2464 -4.86204,17.33917 3.25118,19.22961 7.58351,1.76699 10.98346,-4.73786 15.94653,-8.67799 2.44617,-1.94201 5.11999,-2.32819 7.55022,-0.11789 3.83782,3.49051 1.98984,7.49562 -1.55446,10.28036 -1.27699,1.00333 -3.74836,2.00489 -3.47879,3.98432 0.43445,3.18982 5.04249,2.28703 6.97654,1.32964 9.0158,-4.46305 8.16334,-20.03056 -1.74278,-22.94731 -10.18021,-2.99743 -12.81937,9.45624 -21.02855,10.26651 -7.36783,0.72724 -2.04078,-8.26192 -1.55921,-10.77688 0.51012,-2.66404 -2.17426,-3.75228 -4.36068,-2.57037 m 535.210476,82.75029 -19.04193,29.87287 -9.62764,17.0702 -1.25507,19.63074 -2.54206,33.28691 -2.59083,28.16584 -8.93809,11.94915 -20.59099,25.60532 -58.30906,72.54837 c -8.24022,-5.89695 -14.65929,-15.49466 -21.30555,-23.04477 -12.53035,-14.23441 -25.05121,-28.47815 -37.62325,-42.67553 -4.51069,-5.09387 -8.95641,-10.23742 -13.4282,-15.36318 -1.59727,-1.83079 -4.62862,-4.19546 -4.58824,-6.82809 0.055,-3.58533 5.24436,-7.014 7.51842,-9.38861 6.7821,-7.08188 13.32289,-14.39272 20.25633,-21.33776 19.92277,-19.95602 39.65435,-40.59416 58.57595,-61.45275 6.5943,-7.26937 13.49641,-14.29599 20.3614,-21.32526 2.94792,-3.01848 5.91519,-7.67404 9.74819,-9.64742 3.25348,-1.67502 6.20264,1.07508 8.76539,2.78642 4.64653,3.10283 13.20689,11.75165 19.31218,9.44653 4.80158,-1.81286 9.12593,-6.29995 13.16739,-9.32469 9.01642,-6.7481 18.12296,-13.3947 27.21262,-20.05155 4.78475,-3.50411 9.28431,-7.81375 14.92304,-9.92274 m 75.49306,22.19127 c 7.73627,11.37309 17.47262,21.71784 26.14983,32.4334 3.64204,4.49759 9.47584,9.77566 11.14556,15.36319 2.14537,7.17951 -2.2341,18.54453 -4.04913,25.60531 -3.20279,12.45977 -6.78129,24.75702 -11.69484,36.70095 -3.58856,8.72295 -8.19265,16.958 -11.89534,25.60531 h -1.75565 l -21.98969,-55.47818 -8.55881,-23.04478 4.04097,-23.8983 3.31152,-16.21669 2.39436,-9.06526 12.90122,-8.00495 m -435.4018,5.97457 28.23607,26.98373 11.26682,8.46789 22.82277,-8.13929 15.41613,17.92372 34.38224,39.26148 102.43536,116.07742 40.52836,46.08957 17.03837,21.33775 c -20.88469,4.65524 -41.70258,9.29297 -63.20348,10.20858 -74.41807,3.16867 -146.77067,-21.02905 -202.77785,-68.96848 -15.99601,-13.69179 -30.45565,-29.28008 -42.75544,-46.22188 -3.68842,-5.08042 -10.83027,-12.49619 -11.79104,-18.77723 -0.41825,-2.73425 1.34509,-5.3385 2.5373,-7.68159 2.75356,-5.41164 5.62265,-10.77593 8.31295,-16.21669 10.51636,-21.26806 20.58806,-43.83749 33.16231,-64.01329 h 0.87783 c 0,12.8744 1.14347,25.58192 1.72108,38.40797 0.3366,7.47405 -1.0669,15.03885 3.96582,21.33844 12.54782,15.70644 27.00403,30.15064 40.33259,45.23537 2.39575,2.71144 5.11281,6.75504 8.48428,8.36586 2.78431,1.33028 6.17473,-0.10326 6.53832,-3.26125 0.62772,-5.45187 -8.33416,-12.44326 -11.6461,-16.20025 -8.05806,-9.1409 -16.22559,-18.19367 -24.31226,-27.31233 -3.69841,-4.17034 -8.39823,-8.10627 -11.39004,-12.80266 -2.06807,-3.24635 -1.36287,-7.44747 -1.4075,-11.09562 -0.0762,-6.23994 -0.72942,-12.50979 -0.88731,-18.77724 -0.40902,-16.2353 -0.60909,-33.44954 -3.28236,-49.5036 -1.13944,-6.84292 -2.49199,-13.64585 -3.65694,-20.48424 -0.56268,-3.30315 -1.7519,-6.97645 -0.94828,-10.24214 z"
       id="path1"
       inkscape:export-filename="Cropped_Logo.svg"
       inkscape:export-xdpi="96"
       inkscape:export-ydpi="96" />
  </g>
</svg>
