<?xml version="1.0" encoding="UTF-8" standalone="no"?>
<!-- Created with Inkscape (http://www.inkscape.org/) -->

<svg
   version="1.1"
   id="svg1"
   width="410.87399"
   height="423.62601"
   viewBox="0 0 410.874 423.626"
   sodipodi:docname="Logo_no_text.svg"
   inkscape:version="1.3 (0e150ed6c4, 2023-07-21)"
   xmlns:inkscape="http://www.inkscape.org/namespaces/inkscape"
   xmlns:sodipodi="http://sodipodi.sourceforge.net/DTD/sodipodi-0.dtd"
   xmlns="http://www.w3.org/2000/svg"
   xmlns:svg="http://www.w3.org/2000/svg">
  <defs
     id="defs1" />
  <sodipodi:namedview
     id="namedview1"
     pagecolor="#ffffff"
     bordercolor="#000000"
     borderopacity="0.25"
     inkscape:showpageshadow="2"
     inkscape:pageopacity="0.0"
     inkscape:pagecheckerboard="0"
     inkscape:deskcolor="#d1d1d1"
     inkscape:zoom="1.1632627"
     inkscape:cx="272.07956"
     inkscape:cy="248.00933"
     inkscape:window-width="1920"
     inkscape:window-height="1094"
     inkscape:window-x="-11"
     inkscape:window-y="-11"
     inkscape:window-maximized="1"
     inkscape:current-layer="g1"
     inkscape:clip-to-page="true" />
  <g
     inkscape:groupmode="layer"
     inkscape:label="Image"
     id="g1"
     transform="translate(-204.86549,-104.43669)">
    <path
       style="fill:#809782;fill-opacity:1;stroke:none;stroke-width:0.906825"
       d="m 276.03299,309.45649 c 0.48539,6.30335 2.07771,12.63935 3.09042,18.88094 0.41839,2.57861 1.45008,5.64706 1.15629,8.26042 -0.48411,4.30637 -3.95856,9.1362 -5.81836,12.98064 l -13.41179,27.73139 -12.55901,25.9613 c -1.45735,3.01256 -4.4569,7.09767 -3.44721,10.62053 1.24213,4.33382 4.7725,8.69047 7.20979,12.39062 6.67507,10.13367 14.25514,19.65694 22.63814,28.32141 36.14247,37.35581 84.9077,57.82289 135.86575,57.82289 14.99961,0 29.9285,-1.72219 44.52743,-5.38676 3.44693,-0.86523 6.88943,-1.79357 10.27556,-2.88863 1.40413,-0.45412 3.20654,-0.86784 4.22246,-2.05604 3.03261,-3.54694 -2.47144,-8.46495 -4.45681,-10.90963 -5.62841,-6.93062 -11.35357,-13.77667 -17.04619,-20.65103 -1.52545,-1.84211 -5.26799,-4.92731 -4.40089,-7.67039 0.79846,-2.52599 3.43843,-5.01345 5.00653,-7.08035 3.41411,-4.50013 6.75275,-9.05982 10.15313,-13.57068 10.07277,-13.36238 20.33777,-26.59151 30.19811,-40.122 3.94972,-5.41986 9.13603,-10.57591 12.3053,-16.52083 2.39624,-4.49491 1.3357,-10.97176 1.79231,-15.93079 0.92149,-10.00771 1.4711,-20.06421 2.13548,-30.09151 0.26888,-4.05825 -0.0983,-8.40888 0.86111,-12.39062 1.03985,-4.3157 4.87945,-8.64319 7.15343,-12.39061 5.89307,-9.71148 13.33473,-19.56022 17.72544,-30.09151 h 1.14173 c 3.28662,7.14896 9.10697,13.66111 13.6144,20.061 1.70445,2.42001 4.55107,5.32129 5.28225,8.26042 0.73351,2.94848 -0.86271,7.1097 -1.428,10.0305 -1.06476,5.50135 -2.05688,11.01361 -3.0847,16.52082 -0.53526,2.86793 -1.46225,5.90933 -1.39459,8.85045 0.0945,4.10532 2.58649,8.6174 4.02072,12.39061 2.9769,7.83161 5.85541,15.72012 8.70746,23.60118 3.00314,8.29848 6.14143,16.63924 9.51613,24.78124 1.13476,2.7379 3.03683,7.59908 6.794,5.20417 1.99196,-1.26972 3.09654,-4.36126 4.21193,-6.38423 3.38478,-6.13899 6.03261,-12.91182 8.56339,-19.47097 10.81764,-28.03652 15.4295,-59.09593 12.65595,-89.09445 -2.60875,-28.21626 -9.99821,-55.37037 -23.42356,-80.24401 -36.23735,-67.13836 -110.01057,-106.8876 -183.89718,-99.6148 -79.58922,7.83417 -147.75116,67.60591 -167.19104,147.99722 -5.50499,22.76525 -6.61071,45.76643 -4.63917,69.03345 0.47061,5.55378 1.42403,11.03133 2.32972,16.52082 0.36535,2.21456 0.60035,5.19268 2.87017,6.24721 1.90042,0.88288 3.67906,-0.34587 5.07348,-1.6062 3.10026,-2.80214 5.64771,-6.34469 8.56516,-9.36124 12.36648,-12.78658 24.16044,-26.15163 36.53533,-38.94195 m 316.8298,21.8311 h -0.57087 c -5.17827,-7.22098 -10.67911,-14.21217 -16.09786,-21.24106 -2.0466,-2.6547 -4.30442,-7.22843 -7.35867,-8.71886 -5.05858,-2.46847 -9.86476,8.74976 -14.3637,3.36488 -5.91745,-7.08274 -10.78415,-15.38186 -16.08329,-22.96744 -1.51797,-2.17295 -4.11065,-7.34187 -7.17943,-7.06807 -2.6383,0.23538 -5.43837,3.45367 -7.42079,5.04759 -5.29433,4.25671 -10.6951,8.36935 -15.9842,12.6328 -1.83151,1.47637 -5.99499,5.88917 -8.51189,5.12318 -2.78819,-0.84856 -5.37833,-5.83896 -7.14371,-8.06511 -6.06781,-7.65155 -12.15969,-15.28574 -18.13948,-23.01115 -1.97705,-2.55416 -5.56485,-9.35386 -9.04224,-9.61027 -1.70848,-0.12597 -3.26668,1.34031 -4.54443,2.31186 -2.58656,1.96668 -5.0221,4.23057 -7.99211,5.52832 -10.37124,-14.46058 -21.54529,-28.42509 -32.4252,-42.48212 -2.57328,-3.32472 -5.06468,-6.71476 -7.64939,-10.03003 -1.15503,-1.48149 -2.51324,-3.73101 -4.459,-4.14797 -2.8384,-0.60825 -5.7168,4.13442 -7.41334,5.91758 -6.2278,6.54586 -11.99104,13.56099 -18.2694,20.06101 -18.23776,18.88162 -35.5484,38.89243 -53.14148,58.41291 -6.06505,6.72948 -12.34253,13.24052 -18.31347,20.06101 -2.61057,2.98202 -5.64914,5.55486 -7.89521,8.85044 l -6.85037,-5.9003 -10.27556,-10.62053 -7.42124,-6.21533 -4.51361,2.66331 -8.61671,9.45232 -20.49959,21.83109 -15.46444,15.9308 c -1.57113,-6.74259 -1.87827,-13.77091 -2.33456,-20.65104 -1.54336,-23.27184 1.18717,-46.72343 7.93398,-69.03345 8.22471,-27.19714 22.4639,-52.30551 41.26255,-73.16365 47.22088,-52.39421 122.34636,-72.5124 188.3342,-51.31751 62.63265,20.11718 111.29327,74.69015 125.13917,141.00199 2.81858,13.49872 4.01265,26.9456 3.9185,40.71203 -0.0336,4.92004 0.74452,10.59342 -0.61316,15.34077 M 409.04442,219.18199 h 0.57087 l 30.49808,40.122 7.18117,9.44001 4.56517,3.94719 4.56646,-2.1789 8.56297,-5.308 c 6.10446,9.53828 14.00629,18.33726 21.07571,27.14135 1.79699,2.23793 7.51177,7.37192 6.96404,10.51992 -0.25634,1.47334 -1.88127,2.53355 -2.92436,3.3904 -2.38645,1.96041 -7.57114,7.65202 -10.84378,6.40839 -3.58546,-1.3625 -7.14657,-4.90872 -10.27556,-7.16415 -1.47252,-1.06144 -3.18341,-2.55516 -5.1153,-2.21398 -2.15225,0.38011 -3.74706,2.89544 -5.16821,4.40066 -3.9704,4.2054 -7.92374,8.5448 -11.6516,12.98018 -13.44834,16.00077 -28.14874,30.89227 -41.90481,46.61233 -5.19792,5.94002 -10.67231,11.6565 -15.7525,17.70088 -1.43507,1.70747 -4.10832,5.77829 -6.55703,5.77829 -1.46874,0 -2.59147,-1.81518 -3.43045,-2.83088 l -7.31246,-8.8477 c -9.75776,-11.78331 -19.79764,-23.37153 -29.26869,-35.40177 v -0.59003 l 30.14349,-38.35192 13.24221,-17.11085 c 2.94499,1.48332 4.67999,4.4487 6.65087,7.08035 2.81965,3.76501 5.74286,7.44552 8.56297,11.21056 1.39238,1.85897 3.69835,6.0983 6.46845,5.45687 2.212,-0.5122 2.94297,-2.94675 2.03591,-4.86684 -1.7996,-3.80944 -5.29824,-7.31332 -7.84765,-10.62053 l -7.65029,-10.0305 c -1.19246,-1.54469 -2.90652,-3.2618 -3.17453,-5.31026 -0.24567,-1.87763 0.71724,-4.13348 1.24835,-5.9003 l 3.30139,-11.21056 c 3.18905,-10.58671 5.91118,-21.32295 9.24306,-31.86159 1.26058,-3.9872 1.88008,-8.81094 3.99605,-12.39062 m -9.13383,5.90029 -10.43546,35.9918 -5.78439,18.88095 -15.8609,20.65103 -29.57261,37.17185 h -0.57087 c -2.36586,-3.00308 -4.87046,-5.88459 -7.28071,-8.85044 -1.27588,-1.57 -2.68624,-3.72733 -4.7079,-4.30274 -3.47511,-0.98912 -8.83996,3.09265 -11.9877,4.37332 -2.07917,0.84594 -4.70795,0.79278 -5.5624,-1.85251 -0.86571,-2.68024 2.86941,-5.4599 4.42068,-7.06851 5.70314,-5.91401 10.99579,-12.25759 16.57754,-18.29091 14.47705,-15.64828 29.21357,-31.15013 43.26633,-47.20236 5.79084,-6.61475 11.74359,-13.07486 17.77081,-19.46233 3.20933,-3.40117 5.94348,-7.28408 9.72758,-10.03915 m 118.16895,68.44341 -12.38327,20.65104 -6.26101,11.80059 -0.8162,13.57067 -1.65314,23.01115 -1.68486,19.47098 -5.81258,8.26041 -13.39065,17.70088 -37.91932,50.15251 c -5.35875,-4.07655 -9.53317,-10.71142 -13.85534,-15.9308 -8.14869,-9.8402 -16.29121,-19.68687 -24.46701,-29.50147 -2.93337,-3.52138 -5.82449,-7.07711 -8.73257,-10.62053 -1.03873,-1.26562 -3.01007,-2.90031 -2.9838,-4.72024 0.0358,-2.47853 3.41048,-4.84876 4.88934,-6.49032 4.41051,-4.89569 8.66409,-9.94965 13.17302,-14.75074 12.95609,-13.79554 25.78786,-28.06263 38.09288,-42.48212 4.28838,-5.0253 8.77693,-9.88278 13.24134,-14.7421 1.91708,-2.08667 3.84675,-5.30504 6.33941,-6.66923 2.11579,-1.15794 4.03367,0.7432 5.70028,1.92624 3.02171,2.14498 8.58864,8.12389 12.55902,6.53036 3.12254,-1.25323 5.93474,-4.35513 8.56296,-6.44613 5.86352,-4.66495 11.78565,-9.25972 17.6968,-13.86158 3.11161,-2.42239 6.03774,-5.40163 9.7047,-6.85957 m 49.09434,15.34077 c 5.03102,7.86219 11.36273,15.01348 17.00566,22.42112 2.36848,3.10918 6.1623,6.75789 7.24814,10.62053 1.39517,4.96318 -1.45287,12.81978 -2.63321,17.70089 -2.08283,8.6134 -4.40999,17.11446 -7.60535,25.37126 -2.3337,6.03016 -5.32781,11.72302 -7.73573,17.70089 h -1.14173 l -14.30025,-38.35192 -5.56593,-15.93079 2.62791,-16.52083 2.15354,-11.21056 1.55708,-6.2668 8.38987,-5.53379 m -283.14878,4.13021 18.36237,18.65377 7.32699,5.85384 14.84202,-5.62667 10.02535,12.39062 22.35933,27.14136 66.61536,80.244 26.35624,31.8616 11.08033,14.75073 c -13.58165,3.21815 -27.11986,6.42421 -41.10224,7.05716 -48.39526,2.1905 -95.44733,-14.53732 -131.8697,-47.67772 -10.40246,-9.4651 -19.80579,-20.24125 -27.80454,-31.95306 -2.39865,-3.51209 -7.0431,-8.63859 -7.66791,-12.98065 -0.27199,-1.89019 0.87474,-3.6905 1.65005,-5.31027 1.79068,-3.74105 3.6565,-7.44937 5.40604,-11.21056 6.83896,-14.70255 13.38875,-30.30473 21.56599,-44.25221 h 0.57086 c 0,8.90003 0.74362,17.68472 1.11926,26.55133 0.21889,5.16679 -0.69383,10.39632 2.57903,14.75121 8.16004,10.85781 17.56115,20.84305 26.22893,31.27109 1.55799,1.87441 3.32494,4.66974 5.51747,5.78329 1.81067,0.91962 4.01552,-0.0713 4.25196,-2.25449 0.40822,-3.76886 -5.41983,-8.602 -7.57364,-11.19919 -5.24028,-6.31908 -10.55176,-12.57723 -15.81065,-18.88094 -2.40513,-2.88295 -5.46151,-5.60384 -7.40713,-8.85044 -1.34489,-2.2442 -0.88629,-5.14842 -0.91532,-7.67038 -0.0496,-4.31365 -0.47435,-8.64798 -0.57703,-12.98065 -0.26599,-11.22342 -0.3961,-23.12358 -2.13457,-34.22171 -0.741,-4.7305 -1.62058,-9.43335 -2.37816,-14.16071 -0.36593,-2.28345 -1.1393,-4.8228 -0.61669,-7.08035 z"
       id="path1"
       sodipodi:nodetypes="cssccssscsssssssssssssssccssssssssssssscsssssscccsssssssssssscssscsssccccccccssssssccccccccsssssscssssccccccssssccsccscccccccssssssssccccccccccsssssssssssssccssssccccccccccccccccccsssssccssssssssssssc" />
  </g>
</svg>
